<?xml version="1.0" encoding="utf-8"?>
<!-- Generator: Adobe Illustrator 18.1.1, SVG Export Plug-In . SVG Version: 6.00 Build 0)  -->
<svg version="1.1" id="圖層_1" xmlns="http://www.w3.org/2000/svg" xmlns:xlink="http://www.w3.org/1999/xlink" x="0px" y="0px"
	 viewBox="0 0 612 792" enable-background="new 0 0 612 792" xml:space="preserve">
<rect x="492.6" y="273.6" fill="none" width="26.3" height="428.4"/>
<rect x="90.4" y="273.6" fill="none" width="25.6" height="428.4"/>
<rect x="243.4" y="59.4" fill="none" width="122.4" height="30.6"/>
<rect x="59.8" y="151.2" fill="none" width="489.6" height="61.2"/>
<path fill="#2A8AB6" d="M580,90H396.4V59.4c0-15.3-12.2-30.6-27.5-30.6H246.5c-18.4,0-30.6,12.2-30.6,30.6V90H32.3
	c-18.4,0-30.6,12.2-30.6,30.6V243c0,15.3,12.2,30.6,27.5,30.6h3.1v459c0,18.4,15.3,30.6,30.6,30.6h489.6c15.3,0,27.5-12.2,27.5-30.6
	v-459c30.6,0,30.6-12.2,30.6-30.6V120.6C610.6,102.2,598.4,90,580,90z M243.4,59.4h122.4V90H243.4V59.4z M518.8,702h-26.3h-34.9H427
	h-61.2h-30.6H274h-30.6h-61.2h-30.6H116H90.4V273.6H116h35.6h30.6h61.2H274h61.2h30.6H427h30.6h34.9h26.3V702z M549.4,212.4H59.8
	v-61.2h489.6V212.4z"/>
<rect x="403.5" y="273.6" fill="#2A8AB6" width="30.6" height="428.4"/>
<rect x="174.7" y="273.6" fill="#2A8AB6" width="30.6" height="428.4"/>
<rect x="290.9" y="273.6" fill="#2A8AB6" width="30.6" height="428.4"/>
</svg>
