<?xml version="1.0" encoding="utf-8"?>
<!-- Generator: Adobe Illustrator 18.1.1, SVG Export Plug-In . SVG Version: 6.00 Build 0)  -->
<svg version="1.1" id="圖層_1" xmlns="http://www.w3.org/2000/svg" xmlns:xlink="http://www.w3.org/1999/xlink" x="0px" y="0px"
	 viewBox="0 0 560 558" enable-background="new 0 0 560 558" xml:space="preserve">
<g>
	<g>
		<path fill="#989898" d="M276,559c-1,0-2,0-3,0c0-2.3,0-4.7,0-7c0-5.3,0-10.7,0-16c0-2,0-4,0-6c3.8,0,7.6,0,11.4,0
			c1.8,0,4.2,0.8,5.2-0.4c0.9-1.1,0.4-3.4,0.4-5.2c0.1-3.3,0.1-6.6,0.1-9.9c3.4-1,6.9-0.2,10.3-0.4c1.8-0.1,4.1,0.5,5.2-0.4
			c1.2-1,0.4-3.4,0.4-5.2c-0.1-3.8,0.5-7.5-0.3-11.3c-3.6,0-7.3-0.1-10.9-0.1c-1.5,0-3.4,0.5-4.3-0.3c-1.2-1-0.3-3.1-0.5-4.7
			c0-3.3,0-6.7,0-10c0.7,0,1-0.3,1-1c3.2,0,6.3,0.1,9.5,0c1.8,0,4.1,0.8,5.2-0.4c0.8-0.9,0.3-3.1,0.3-4.8c0-8.2,0-16.3,0-24.5
			c0-0.8-0.7-2.1,1-2.3c0.7,0,1.3,0,2,0c2.2,0,4.3,0.1,6.5,0c2.1-0.1,4.3,0.5,6.4-0.3c0.1-2,0.1-4,0.2-5.9c0-13.3,0-26.6,0.1-39.9
			c0-0.9-1-2.4,1-2.8c0.3,0,0.7,0,1,0c0,11.8,0,23.6,0,35.5c0,1.2,0,2.3,0,3.5c0,0.9,0.5,1.1,1.3,1c0.7,0,1.8,0.3,1.8-1
			c0-0.8,0-1.7,0-2.5c0-12.2,0-24.3,0-36.5c3.1,0,6.3-0.1,9.4,0c1.3,0,1.6-0.4,1.6-1.7c-0.1-4.8,0-9.6,0-14.3c2.2,0.7,4-1,6-1
			c2.7,0,5.3,0,8,0c-0.1,0.9,0.6,1.2,1.2,1c1.3-0.5,1.8-1.5,1.8-3c-0.1-4.2,0-8.5-0.1-12.7c0-1.7,1.1-1.1,2-1.2c4.3,0,8.7,0,13,0
			c1,0.1,1-0.6,1-1.3c0-3.8,0-7.7,0-11.5c0-3.2,0-3.2,3-3.2c9.3,0,18.6,0,27.9,0c0.3,0,0.7,0,1,0c5.7,0,11.3,0,17,0
			c0,4.6-0.1,9.3,0.1,13.9c0.1,2-0.7,2.1-2.3,2.1c-4-0.1-8-0.1-12,0c-1.9,0-2.8,0.8-2.8,2.5c-0.1,4,0,8,0,12c0,1.6,1,2.3,2.4,2.5
			c1,0.1,2,0,3,0c10.5,0,20.9,0,31.4,0c4,0,7.9-0.1,11.9-0.1c0.8-4.1,0.1-8.2,0.4-12.3c0-0.5,0.1-1,0-1.5c-0.4-1.3,0.8-2,1-3.1
			c30.3,0,60.6,0,90.9,0c6.3,0,6.2-0.2,6.1,6.3c-0.1,3.5,0.1,6.9,0.1,10.4c3.6,0.8,7.2,0.1,10.8,0.3c0,56.8,0,113.7,0,170.5
			c0,1.2-0.1,2.3,0,3.5c0.1,0.9-0.2,1.1-1,1c-1-0.1-2,0-3,0c0-1.2,0-2.3,0-3.5c0.1-1-0.1-1.6-1.3-1.5c-1.3,0.1-2.7,0-4,0
			c-43.9,0-87.8,0-131.7,0c0-6,0-12,0-18c0-12,0-23.9,0-35.9c0-1.8,0.4-2.3,2.2-2.2c3,0.2,6,0.1,9,0c3.5-0.1,4.9-1.6,4.9-5
			c0-8.6,0-17.3,0-25.9c0-0.7,0-1.3,0-2c4.4,0,8.8,0,13.3,0c0.7,0,1.7,0.4,1.7-1c1.9-0.3,0.9-1.9,1-2.8c0.1-12.4,0-24.8,0-37.2
			c0-2-0.1-4,0-6c0.1-1.4-0.1-2.1-1.8-2c-3.7,0.1-7.3,0-11,0c-3.2,0-3.2,0-3.2,3.1c0,15.3,0,30.6,0,45.9c-0.7,0-1.3,0-2,0
			c-3.8,0-7.6,0-11.5,0c-2.5,0-2.5,0-2.5,2.7c0,0.8,0,1.7,0,2.5c0,8.3,0,16.6,0,24.9c0,1.6-0.5,1.9-2,1.9c-4.3-0.1-8.6,0.1-13-0.1
			c-1.8-0.1-2.2,0.5-2.2,2.2c0.1,12.8,0.1,25.6,0,38.4c0,2.8,0.5,5.6-0.3,8.3c-2.6,0-5.3,0.1-7.9,0.2c-2.5,0.1-4.9,0.1-7.4,0.2
			c-0.7,2.6-0.1,5.2-0.3,7.8c-30.9,0-61.8,0-92.6,0c-1.3,0-2.7,0-4,0c-1.2,0-2.4,0.3-3.5-0.1c-2-0.6-1.8,2-2.6,1.9
			c-1.4-0.2-3.5,1.6-4.4-1.3c-0.4-1.3-2.1-0.6-3.1-0.5c-1.2,0.1-0.7,1.2-0.8,2C275.9,557,276,558,276,559z M333,445.4
			c0-0.6,0.1-1.3-0.8-1.4c-1.3,0-2.6,0-3.9,0c-0.5,0-1.2,0.1-1.2,0.5c0,1.5-2,2.6-1,3.9c0.9,1.3,2.2,0.7,3.3-0.3
			c0.4-0.3,1.3,0,1.8-0.2C332.2,447.5,333.2,446.8,333,445.4z M324.9,450.4c-0.1-0.1-0.3-0.4-0.4-0.4c-2.3,0-4.7,0-7,0
			c-0.1,0-0.3,0.6-0.3,0.6c1.4,0.7,0.2,2.4,1.1,3c0.9,0.7,2.1,0.5,3.1-0.5c0.3-0.4,1.2-0.1,1.9-0.2c0.3-0.1,0.5-0.3,0.7-0.5
			c-0.3-0.2-0.5-0.4-0.8-0.4c-0.5-0.1-1,0-1.5,0c-0.6,0-1.5,0.3-1.5-0.6c0-0.5,0.8-0.4,1.3-0.4c1,0,2,0,3,0
			C324.6,451,324.7,450.6,324.9,450.4z"/>
		<path fill="#0F1B2B" d="M324,400c-0.3,0-0.7,0-1,0c0-20.1,0-40.2,0-60.2c0-1-0.2-2,0-3c0.6-2.6-2.7-2.2-3.1-4.1
			c-0.3-1.4-2-0.4-3.1-0.6c-0.2,0-0.8,0.3-0.8,0.4c-0.1,2.7-2.2,1.3-3.3,1.5c-1.4,0.2-2.9,0-4.4-0.1c-0.1,0-0.2-0.5-0.4-0.8
			c-0.5-1.1-1.1-2.1-1.1-3.6c0.2-3-0.2-6,0.1-8.9c0.3-2.7-3.4-1.7-3.2-4.1c0-0.5-0.8-0.4-1.3-0.4c-0.5,0-1.3,0.1-1.3,0.3
			c-0.5,3-2.8,1.2-4.2,1.7c-1.3,0-2.7,0-4,0c-0.3,0-0.7,0-1,0c-0.7,0-1.3,0-2,0c0-1.7,0-3.3,0-5c0-0.3,0-0.7,0-1
			c0.3-0.1,0.8-0.2,0.8-0.3c0-2.8,0-5.5,0-8.3c0-0.1-0.5-0.2-0.8-0.3c0.1-0.9-0.5-1-1.2-1c-1.6,0-3.2,0-4.8,0c-1,0-2,0-3,0
			c-1.5,0-3,0.1-4.5,0c-1.1-0.1-2.4,0.5-3.3-0.3c-0.7-0.6,0.3-2-0.7-2.6c-0.1-0.1-0.3,0-0.5,0c-0.8-2.5,1.3-4.6,1.1-7.1
			c-0.2-2.6-0.1-5.3-0.1-8c0-2,0-4,0-6c0-3.3-0.1-6.6,0.1-9.9c0.1-1.3-0.9-2-1.1-3.1c0.5-1.1,1.3-2.1,1-3.6c-0.2-1.5,0-3,0-4.4
			c0-0.3,0-0.7,0-1c0-0.7,0-1.3,0-2c1.4,0,1-1.1,1-1.8c0-20.2,0-40.4,0.1-60.7c0-1.4-0.5-2.4-1.1-3.6c0-5.3,0-10.7,0-16
			c0-9.5,0-19,0-28.5c0-2.9,0.6-3.5,3.3-3.5c3.5,0,7,0,10.5,0c2.5,0,3.1-0.7,3.2-3.2c0-4,0.1-8,0-12c0-1.6,0.6-1.9,2-1.8
			c3.8,0.1,7.7,0,11.5,0c2.5,0,2.5,0,2.5-2.7c0-0.7,0-1.3,0-2c-0.1-3.6-0.1-7.3-0.2-10.9c-3.8-0.7-7.6-0.2-11.3-0.3
			c-1.5-0.1-3,0-4.5,0c0-4.4,0-8.9,0-13.3c0-1.2,0.3-1.7,1.6-1.7c4.4,0.1,8.9,0,13.3,0c0.6,0,1.4,0.4,1.8-0.3
			c0.3-0.6-0.3-0.7-0.8-0.7c0-5.1,0-10.2,0-15.4c0-1.3-0.4-1.7-1.7-1.7c-4.8,0.1-9.6,0-14.4,0c0-4.8,0-9.6,0-14.4
			c0-1.3-0.3-1.7-1.6-1.7c-3.8,0.1-7.6,0-11.4,0c-2-2.6-2-2.6-2-6.1c0-1.5,0-3,0-4.5c0-0.5-0.1-1.1,0.4-1.3c0.6-0.3,2.2,0.3,0.9-1.5
			c-0.7-1-0.9-1.9-2.3-1.6c0-0.7-0.3-1-1-1c-16,0-32,0-48,0c0-0.7,0-1.3,0-2c0-4,0-8,0-12c-0.1-3-0.1-3-2.3-3c-10.9,0-21.9,0-32.8,0
			c-0.8,0-1.7-0.1-2.5,0.1c-4.8,1.1-4.8,1.1-8.7-0.1c-2.7-0.9-2.7-0.9-2.8-3.6c0-3.5-0.1-7,0-10.4c0-1.4-0.2-2.1-1.8-2
			c-3.6,0.1-7.3,0-10.9,0C160,9,160,9,160,6c0-1.7,0-3.3,0-5c132.2,0,264.3,0,396.5,0c1.2,0,2.3,0.1,3.5,0c0.9-0.1,1.1,0.2,1,1
			c-0.1,1.2,0,2.3,0,3.5c0,39.2,0,78.3,0,117.5c-0.7,0-1.4,0.1-2,0c-1.4-0.4-2.2,1.2-3.6,1.1c-1.4-0.2-2.5-1.5-4.1-1.1
			c-1.1,0.3-1.4-0.4-1.3-1.4c0-3.7,0-7.3,0-11c0-2.9-0.6-3.5-3.3-3.5c-3.5,0-7-0.1-10.5,0c-1.7,0.1-2.3-0.3-2.2-2.2
			c0.1-7.8-0.1-15.7,0.2-23.5c0.1-2.1-1.2-3.6-1.1-5.6c0-0.5-0.3-0.8-1-0.8c-1.3,0-2.7,0.1-4,0c-3-0.2-6.1,0.6-9.1-0.9
			c-1.1-0.5-2-0.4-1.9-2c0.1-4.2,0-8.3,0.1-12.5c0-1.3-0.4-1.8-1.7-1.7c-1.2,0.1-2.3,0-3.5,0c-8.3,0-16.7,0-25,0
			c-1.5,0-1.9-0.5-1.9-2c0.1-4-0.1-8,0.1-12c0.1-1.9-0.6-2.1-2.3-2.1c-11.2,0.1-22.3,0-33.5,0c-3.8,0-7.7,0.1-11.5,0
			c-1.6-0.1-1.9,0.6-1.8,2c0.1,3.8,0,7.7,0,11.5c0,1.6-0.9,2.3-2.4,2.5c-1,0.1-2,0-3,0c-12.5,0-25,0-37.5,0c-6.3,0-6.2-0.2-6.2,6.2
			c0.1,8.2,0,16.3,0,24.5c0,2.3,0,2.3-2.5,2.3c-3.7,0-7.3,0-11,0c-2.5,0-2.5,0-2.5,2.3c0,3.8-0.1,7.7,0,11.5c0,1.6-0.1,2.4-2.1,2.3
			c-4-0.2-8,0-12-0.1c-1.4,0-2,0.3-2,1.9c0.1,8.3,0,16.7,0,25c0,1.3,0.4,3.1-0.3,3.8c-1.3,1.3,0.8,1.6,0.3,2.4c0,3.3,0,6.7,0,10
			c-0.6-0.1-0.9,0.3-1,0.8c-0.1,0.7,0,1.3,1,1.2c0,16,0,32,0,48c-0.7,0-1.3,0-2,0c0-17.3,0-34.6,0-51.9c0-1.2,0-2.3,0-3.5
			c0-0.2-0.4-0.5-0.6-0.6c-0.3-0.1-0.9,0-0.9,0.1c-0.1,1.3-2.1,2.4-1.3,3.3c1.7,2,0.8,4.1,0.8,6.2c0.1,15.5,0.1,30.9,0.1,46.4
			c-4.7,0-9.3,0-14,0c-0.6,0-1,0.2-1,0.8c-0.1,0.7,0.1,1.3,1,1.3c4.7,0,9.3,0,14,0c0.1,1-0.6,1-1.3,1c-2.8,0-5.6,0-8.4,0
			c-0.7,0-1.4,0-1.3,1c0,0.3,0,0.7,0,1c-0.3,0-0.7,0-1,0s-0.7,0-1,0c0-0.3,0-0.7,0-1c-0.1-0.3-0.2-0.6-0.3-0.8c0,0-0.3,0-0.3,0
			c-0.4,1.5-1.5,3.3-1,4.3c0.7,1.3,0.7,2.5,0.7,3.7c0,22.7,0,45.5,0,68.2c0,1.6,0.1,3-2.3,2.6c-0.9-0.1-0.8,0.8-0.8,1.5
			c0,0.8,0,1.7,0,2.5c-2.1,0.8-0.9,2.5-0.7,3.6c0.1,0.8,1.4,0.3,2.2,0.3c3.3,0.1,6.6,0,9.8,0c3.6,0,3.6,0,3.7-4c2,0,4,0,6,0
			c0,0.7,0,1.3,0,2c-1.4-0.2-2.1,0.1-2,1.8c0.1,8.3,0,16.6,0,24.9c0,0.8-0.1,1.7,0,2.5c0.2,1.3,1.3,0.6,2,0.8c1.6,0,3.3-0.1,4.9,0
			c1.7,0.2,3.6-0.7,5.2,0.6c1.6,1.3,2.6-1.2,4.4-0.7c1.2,0.4,1.5,0.7,1.5,1.8c0,5.1,0,10.2,0,15.3c-0.3,0.1-0.7,0.4-0.8,0.3
			c-0.6-0.3-0.5,0.1,0,0.4c0.9,0.5,1.9,0.3,2.9,0.3c9.1,0,18.2,0,27.3,0c1.2,0,1.7,0.3,1.7,1.6c-0.1,4.5,0,8.9,0,13.4
			c-9.3,0-18.6,0-27.9,0c-3,0-3,0-3,3.2c0,3.8,0,7.7,0,11.5c0,0.7,0,1.4-1,1.3c0.1-0.6-0.3-1-0.8-1c-3.8,0-7.6,0-11.4,0
			c-0.5,0-0.9,0.4-0.8,1c-0.9,0.1-2-0.4-2,1.2c0,4.2-0.1,8.5,0.1,12.7c0,1.5-0.5,2.5-1.8,3c-0.6,0.2-1.3,0-1.2-1c0-0.2,0-0.5,0-0.5
			c-4.5-1.1-9.1-0.5-13.6-0.3c-0.7,0-0.2,1.2-0.3,1.8c0,4.8,0,9.6,0,14.3c0,1.2-0.3,1.7-1.6,1.7c-3.1-0.1-6.3,0-9.4,0
			C326,400,325,400,324,400z"/>
		<path fill="#E84D3C" d="M277,58c3.8,0,7.6,0.1,11.4,0c1.3,0,1.7,0.4,1.6,1.7c-0.1,4.8,0,9.6,0,14.4c0,1.4,1.1,1,1.8,1
			c3.9,0.1,7.8-0.2,11.6,0.9c1.1,0.3,1.7,0.4,1.7,1.7c-0.1,2.5,0,5,0,7.5c0,1.9-0.2,1.8-1.9,4.1c-1,1.4-2.1,0.7-3,0.7
			c-19.9,0.1-39.9,0-59.8,0c-4.5,0-9,0-13.5,0c-0.7,0-1.8-0.4-1.8,1c0,0.3,0,0.7,0,1c-0.9,0.1-2-0.4-2,1.3c0,1.4,0.7,2.4,0.9,3.6
			c0.2,1.1-1.4,2.1-0.9,3.6c0.1,0.3-0.1,0.8,0,1c1.4,1.1,0.5,1.9,0.1,3.2c-0.7,2.8-2.5,1.3-3.5,1.3c-21.1,0.1-42.2,0.1-63.4,0.1
			c-4,0-8,0-12,0c-0.7,0-1.4,0-1.3,1c0,4.3,0,8.7,0,13c-0.5,0-1.4-0.1-1.4,0c-0.4,2.1-1.9,2-3.6,2c-9.3-0.1-18.6,0-27.8,0
			c-9.6,0-19.2,0-28.8,0c-0.8,0-2.1-0.7-2.3,1c-0.7,0-1,0.3-1,1c-1-0.1-1,0.6-1,1.3c0,3.6-0.1,7.3,0,10.9c0.1,1.6-0.6,2-2,1.8
			c-0.8-0.1-1.7,0-2.5,0c-13.4,0-26.8,0-40.2,0c-1,0-2,0.1-2.9,0.1c-0.1,0-0.2,0.2-0.4,0.3c0.2,0.2,0.4,0.5,0.7,0.5
			c0.7,0.1,1.4,0,1.3,1c-1.6-0.3-2.3,0.4-2,2c0,2,0,4,0,6c0,0.7,0,1.3,0,2c0,2,0,4,0,6c-5.3,0-10.7,0-16,0c-3.7,0-7.3,0-11,0
			c0-16,0-32,0-48c8.2,0,16.5,0,24.7,0c0.8,0,2.1,0.7,2.3-1c0-0.3,0-0.7,0-1c0-4.3,0-8.7,0-13c0-1.4,0.1-2.1,1.8-2
			c4.2,0.1,8.3,0,12.5,0.1c1.2,0,1.4-0.5,1.9-1.5c0.6-1.1,0.8-2.1,0.8-3.2c0-3.7,0-7.3,0-11c0-1.1,0.4-1.4,1.5-1.4
			c4.2,0,8.3,0,12.5,0c1.3,0,2.1,0,2.1-1.7c0.1-4.8-0.7-9.6,0.4-14.3c4.8,0,9.7,0,14.5,0c1.5-0.1,0.8-1.2,1-2c1.7-0.2,1-1.5,1-2.3
			c0-9.2,0-18.5,0-27.7c4,0,8,0,11.9,0c1.3,0,1.7-0.3,2.4-1.6c0.5-1.1,0.7-2.1,0.7-3.2c0-3,0-6,0-9c0-2.2,0-2.1,3-2.3
			c8.6,0,17.2,0,25.7,0c0.8,0,2.1,0.7,2.3-1c0.9-0.1,2,0.5,2-1.2c0-2.3,0-4.5,0-6.8c10.7,0,21.3,0,32,0c0,0.7,0.1,1.3,0,2
			c-0.3,2,1.2,4.6-2,5.7c-0.2,0.1-0.1,1.4,0.8,1.3c4.4-0.6,8.7,1.2,13.1,1c1.5-0.1,2.6,0.5,3,1.9c0.4,1.2,1.2,2.1,1.1,3.6
			c-0.2,2.7-0.9,5.3-1.8,7.8c-0.3,0.9-0.6,1.7,0.6,1.8c2.4,0.2,4.9-0.5,6.8,2c0.3,0.4,2.1,0.2,3.3-0.2c2.4-0.8,4.8-1.6,7.3-1.6
			c9.3-0.2,18.7-0.1,28-0.1c1,0,2.1-0.1,1.8,1.5c3.2,3.5,1.7,7.7,2,11.7c0.1,1-0.8,0.8-1.4,0.9c-0.5,0.1-0.7,0.7-0.6,1.2
			c0.1,0.5,0.4,0.8,1,0.8c1-0.1,2,0,3,0c16,0,32,0,48,0c0,4.7,0,9.3,0,14c-0.1,1.2-0.1,2.3,1.6,2C275.4,57.9,276.2,58,277,58z"/>
		<path fill="#2D0976" d="M290,318c0.7,0,1.3,0,2,0c0.1,0.3,0.2,0.8,0.3,0.8c0.6,0.1,0.7-0.3,0.7-0.8c1.3,0,2.7,0,4,0
			c0.1,0.7-0.5,1.9,0.8,2c1.5,0.1,3,0.1,4.5,0c1.2-0.1,1.5,0.4,1.9,1.5c0.8,2.4,1.3,5.8,0.3,8.4c-0.6,1.5-1,3.5,0.1,3.9
			c1.6,0.5,1.6,2.9,4.1,2.3c2.5-0.6,5.3-0.1,8-0.1c1.7,0,3.2,1.2,3.4,3c0.1,1.1,0,2.3,0,3.5c0,8.7-0.2,17.3,0,26
			c0.2,8.7-1,17.4,1,26.1c0,14.5,0,29,0,43.4c0,1.3,0,2.1-1.7,2.3c-0.6,0.1-0.6,1.5,0,1.5c2.5,0.2,1.7,2.1,1.6,3.3
			c-0.2,1.3-1.8,1.5-2.9,1.9c-1,0.4-2.7,0.5-3.4,0c-2.1-1.6-4.4-0.7-6.6-0.9c-2.4-0.2-2.1,0.1-3.1,2.7c-0.9,2.4-0.9,4.7-0.9,7.1
			c0,6.2,0,12.3,0,18.5c0,1,0.1,2,0,3c-0.2,1.4-1.8,2.6-3.2,2.7c-2.8,0-5.7,0-8.5,0c-0.7,0-1.4,0-1.3,1c0,0.7-0.3,1-1,1
			c-0.3-0.1-0.7-0.2-0.8-0.4c-0.4-0.5,1.6-1,0.1-1.6c-1-0.4-1.3,0.4-1.3,1.4c0.1,3.3,0,6.7,0,10c0,1.3,0.3,2.6-1.7,2.8
			c-0.6,0.1-0.6,1.2,0.1,1.6c0.6,0.4,1.7,0,1.6,1.3c0,0.3,0.3,0.5,0.4,0.8c0.2-0.2,0.5-0.4,0.5-0.7c0-1.5,0-3,0-4.5
			c0-0.5,0.3-0.9,1-0.8c0.2,1.6-0.7,3.7,0.5,4.7c0.9,0.8,2.8,0.3,4.3,0.3c3.6,0.1,7.3,0.1,10.9,0.1c0.8,3.7,0.2,7.5,0.3,11.3
			c0,1.8,0.8,4.2-0.4,5.2c-1.1,0.9-3.4,0.3-5.2,0.4c-3.4,0.2-6.9-0.6-10.3,0.4c0,3.3,0,6.6-0.1,9.9c0,1.8,0.5,4.1-0.4,5.2
			c-1,1.2-3.4,0.4-5.2,0.4c-3.8,0.1-7.6,0-11.4,0c-1,0-2,0-2.9,0c-1.6,0.1-0.7,0.7-0.3,1.3c0.4,0.6,0.3,1.2-0.3,1.7
			c-0.5,0.4-0.3,1.1,0,1c2.1-0.8,2.1,1.8,3.5,2.1c0,5.3,0,10.7,0,16c-0.9-0.1-1,0.5-1,1.2c0,1.9,0,3.9,0,5.8c-42.7,0-85.3,0-128,0
			c-0.3-2.7,0.7-5.6-1-8.1c0-5.3,0-10.7,0-16c0-1,1-1.8,1.1-3.1c0-1.1,1-1.9,2.4-1.9c2.8,0.1,5.7,0.1,8.5,0c0.9,0,2.6,0.5,2.7-0.3
			c0.3-1.7,2.2-2.1,2.2-3.6c0.1-3.2,0.1-6.3,0-9.5c-0.1-1.3-1.9-2.5-3.3-2.5c-3.7,0-7.3-0.1-11,0c-1.2,0-1.3-0.7-1.9-1.5
			c-1-1.3-0.7-2.5-0.8-3.7c-0.1-1.5,0.5-3.3-0.2-4.4c-1.5-2.1-0.9-2.6,1.3-2.5c0.6,0,0.9-0.3,1-0.8c0.1-0.5-0.1-1-0.6-1.1
			c-1.1-0.3-3,0.6-3.1-0.5c-0.2-1.3,2.6,0.5,2.8-1.5c4,0,8,0,11.9,0c3.8,0,4-0.2,4.1-4.3c0-3-0.1-6,0-8.9c0-1.3-0.7-2.9,0.5-3.7
			c0.8-0.6,2.2-0.3,3,0.9c0.1-0.1,0.2-0.3,0.4-0.3c3.1-1.4,6.4-0.3,9.7-0.6c1.8,1.9,1.9-0.1,2.5-1c0.2,0,0.4,0.1,0.5,0
			c1.1-1.8,0.5-3.9,0.4-5.8c0-1.7,1.5-3.1,0.2-5.3c-1.2-2.1-0.2-2.9,2.6-2.9c8.7,0,17.3,0,26,0c0.8,0,2.1,0.7,2.3-1c0-0.3,0-0.7,0-1
			c0.3,0,0.7,0,1,0c1.4,0,1-1.1,1-1.8c0.1-4,0.1-7.9,0.2-11.9c4.1-0.8,8.2-0.1,12.3-0.4c1.1-0.1,2.4,0.4,3.3-0.3
			c0.4-0.4-0.3-0.7-0.8-0.6c0-4.6,0.1-9.3-0.1-13.9c-0.1-1.9,0.5-2.2,2.2-2.1c9.3,0.1,18.5,0.1,27.8,0c0.9,0,2.1,0.5,2.8-0.3
			c0.4-0.4-0.3-0.7-0.8-0.7c0-0.7,0-1.3,0-2c0.6,0.1,1-0.3,1-0.8c0-12.1,0-24.3,0-36.4c0-0.5-0.4-0.9-1-0.8c0-5,0-10,0-15
			c1.4-1,1.4-2,0-3c-0.1-2.3,0.4-4.6-0.7-6.8c2.4-0.1,4.9-0.1,7.3-0.2c1.8,0,3.6,0,5.4,0c-0.1,0.6,0.3,0.9,0.8,1
			c0.7,0.1,1.3,0,1.2-1c0.7,0,1.3,0,2,0c0.7,0,1-0.3,1-1c0.6,0.1,1-0.3,1-0.8c0.1-1.5,0-3,0-4.5c0-12.9,0-25.8,0-38.8
			c0-1.4,0.2-2.1,1.8-2c3.8,0.1,7.6,0.1,11.4,0c0.7,0,1.8,0.4,1.8-1C290,318.7,290,318.3,290,318z"/>
		<path fill="#010001" d="M355,140c0.4-0.8-1.6-1.1-0.3-2.4c0.7-0.7,0.3-2.5,0.3-3.8c0-8.3,0.1-16.7,0-25c0-1.6,0.5-1.9,2-1.9
			c4,0.1,8-0.1,12,0.1c2,0.1,2.1-0.7,2.1-2.3c-0.1-3.8,0-7.7,0-11.5c0-2.2,0-2.3,2.5-2.3c3.7,0,7.3,0,11,0c2.4,0,2.5,0,2.5-2.3
			c0-8.2,0.1-16.3,0-24.5c-0.1-6.4-0.2-6.3,6.2-6.2c12.5,0.1,25,0,37.5,0c1,0,2,0.1,3,0c1.4-0.2,2.4-0.9,2.4-2.5
			c0-3.8,0.1-7.7,0-11.5c0-1.4,0.2-2.1,1.8-2c3.8,0.1,7.7,0,11.5,0c11.2,0,22.3,0,33.5,0c1.7,0,2.4,0.2,2.3,2.1c-0.2,4,0,8-0.1,12
			c0,1.5,0.4,2,1.9,2c8.3-0.1,16.7,0,25,0c1.2,0,2.3,0.1,3.5,0c1.3-0.1,1.7,0.4,1.7,1.7c-0.1,4.2,0,8.3-0.1,12.5
			c0,1.6,0.8,1.5,1.9,2c3,1.4,6.1,0.6,9.1,0.9c1.3,0.1,2.7,0,4,0c0.6,0,1,0.3,1,0.8c-0.1,2,1.2,3.5,1.1,5.6
			c-0.2,7.8,0,15.7-0.2,23.5c0,1.9,0.5,2.2,2.2,2.2c3.5-0.1,7-0.1,10.5,0c2.8,0,3.3,0.6,3.3,3.5c0,3.7,0,7.3,0,11
			c0,1,0.3,1.7,1.3,1.4c1.6-0.5,2.7,0.9,4.1,1.1c1.4,0.2,2.1-1.5,3.6-1.1c0.6,0.2,1.3,0,2,0c0,27.3,0,54.7,0,82
			c-3.4,0.3-6.6-1.7-10.1-1c-0.9,0.2-0.9-0.7-0.9-1.3c0-4,0-8,0-12c0-2.7,0.5-2.7-2.6-2.7c-20.1,0-40.3,0-60.4,0c-0.7,0-1.3,0-2,0
			c0-4.6-0.1-9.3,0.1-13.9c0.1-2-0.6-2.1-2.3-2.1c-4.1,0.1-8.3,0-12.4,0.1c-1.1,0-1.4-0.4-1.4-1.4c0-4.1-0.1-8.3,0.1-12.4
			c0.1-1.8-0.4-2.2-2.2-2.2c-10.3,0.1-20.6,0-30.9,0c-4.2,0-8.3,0-12.5,0c-3.5,0-3.5,0-3.5-3.7c0-3.5-0.1-7,0-10.5
			c0.1-1.7-0.7-1.9-2-1.8c-0.7,0.1-1.3,0-2,0c-1-1.4-2-1.4-3,0c-16.7,0-33.3,0-50,0c-1-1.4-2-1.4-3,0C358.3,140,356.7,140,355,140z"
			/>
		<path fill="#1A0A51" d="M144,498c-0.2,2.1-3,0.2-2.8,1.5c0.2,1.1,2.1,0.2,3.1,0.5c0.5,0.1,0.7,0.6,0.6,1.1c-0.1,0.5-0.3,0.9-1,0.8
			c-2.2-0.1-2.7,0.3-1.3,2.5c0.7,1,0.2,2.9,0.2,4.4c0.1,1.3-0.2,2.4,0.8,3.7c0.6,0.8,0.6,1.5,1.9,1.5c3.7-0.1,7.3,0,11,0
			c1.4,0,3.2,1.2,3.3,2.5c0.1,3.2,0.1,6.3,0,9.5c-0.1,1.5-2,1.9-2.2,3.6c-0.1,0.9-1.8,0.3-2.7,0.3c-2.8,0.1-5.7,0.1-8.5,0
			c-1.4,0-2.4,0.8-2.4,1.9c0,1.3-1,2-1.1,3.1c-0.1,5.3,0,10.7,0,16c1.7,2.5,0.7,5.4,1,8.1c-27.3,0-54.7,0-82,0c0-3.2,0-6.3,0-9.5
			c0-2.9-0.6-3.5-3.3-3.5c-4,0-8-0.1-12,0c-1.2,0-1.9-0.3-1.7-1.6c0.2-1.2-0.5-2.6,0.7-3.7c0.4-0.3,0.5-1.4,0.2-1.8
			c-1.5-2.1-0.8-4.4-0.9-6.6c-0.1-2.2-0.1-2.2-2.6-2.2c-3.8,0-7.7-0.1-11.5,0c-1.4,0-2.1-0.2-2-1.8c0.1-3.8,0.1-7.6,0-11.5
			c0-2.7,0-2.7-2.5-2.7c-8.1,0-16.3,0-24.4,0c0-22,0-44,0-66c2.8,0,5.7,0,8.5,0c2.5,0,2.5,0,2.5-2.3c0-3.5,0-7,0-10.5
			c0-3.2,0-3.2,3-3.3c3.7,0,7.3-0.1,11,0c1.4,0,2.1-0.1,2-1.8c-0.1-3.8-0.1-7.6,0-11.5c0-2.7,0-2.7,2.5-2.7c3.8,0,7.7-0.1,11.5,0
			c1.4,0,2.1-0.2,2-1.8c-0.1-3.8-0.1-7.6,0-11.5c0-2.7,0-2.7,2.6-2.7c9.8,0,19.6,0,29.4,0c0,9.9,0,19.8,0,29.7c0,0.8-0.7,2.1,1,2.3
			c0.5,1.9,2,0.6,3,1c-0.1,1,0.6,1,1.3,1c3,0,6,0.1,8.9,0c1.6-0.1,1.8,0.6,1.8,2c-0.1,8.6,0,17.2,0,25.8c0,1.2-0.1,2.3,0,3.5
			c0.2,1.3,1.3,0.6,2,0.8c3.8,0,7.6,0,11.4,0c0.8,0,1.9-0.1,2.3,0.3c0.7,0.7,1.5,2.4,1.2,2.8c-1.3,1.7,0.6,3.1,0.2,4.7
			c-0.4,1.7-0.1,3.6-0.1,5.4c0,0.7-0.4,1.8,1,1.8c5.3,0,10.7,0,16,0c0,5,0,10,0,15c0.1,0.9-0.4,2,1.2,2C133.5,498,138.7,498,144,498
			z M61.3,514c4.8,0,9.6-0.1,14.5,0c1.6,0,2.4-0.1,2.3-2.1c-0.2-4-0.1-8,0-12c0-1.4-0.2-2.1-1.8-2c-3.5,0.1-7,0.1-10.5,0
			c-3.3,0-3.7-0.4-3.7-3.7c0-3.5,0-7,0-10.5c0-2.1-0.8-2.8-3-2.8c-3.2,0-6.3,0-9.5,0c-1.1,0-2.4,0.5-3.3-0.4
			c-0.7-0.6,0.2-1.9-0.7-2.7c-0.8-0.7-0.3-1.3,0.1-2.1c1.1-2.7,0.3-5.5,0.4-8.3c0-1.3-1.8-2.6-3.2-2.6c-9.3,0-18.6,0-27.9,0
			c-1.1,0-1.8,0-1.8,1.5c0.1,4.7,0.1,9.3,0,14c0,1.5,0.7,1.5,1.8,1.5c3.7,0,7.3,0,11,0c3.2,0,3.2,0,3.2,3c0,3.7,0.1,7.3,0,11
			c0,1.4,0.2,2.1,1.8,2c4-0.1,8,0,12-0.1c1.6,0,2.4,0.1,2.3,2.1c-0.2,4,0,8-0.1,12c0,1.4,0.2,2,1.9,2C51.6,513.9,56.5,514,61.3,514z
			 M111,484c-0.1-0.9,0.5-2.2-1.2-2c-1.3,0.2-0.7,1.2-0.8,2c-0.1,0.5-0.1,1,0,1.5c0.2,0.5,0.7,0.7,1.2,0.5c0.3-0.1,0.7-0.3,0.7-0.5
			C111.1,485,111,484.5,111,484z"/>
		<path fill="#2D0976" d="M77,400c-9.8,0-19.6,0-29.4,0c-2.5,0-2.5,0-2.6,2.7c0,3.8-0.1,7.7,0,11.5c0.1,1.6-0.6,1.9-2,1.8
			c-3.8-0.1-7.6,0-11.5,0c-2.5,0-2.5,0-2.5,2.7c0,3.8-0.1,7.7,0,11.5c0.1,1.7-0.7,1.8-2,1.8c-3.7-0.1-7.3,0-11,0c-3,0-3,0-3,3.3
			c0,3.5,0,7,0,10.5c0,2.2,0,2.2-2.5,2.3c-2.8,0-5.7,0-8.5,0c0-42.7,0-85.3,0-128c8.5,0.4,16.9-1.8,25.4-1c1.3,0.1,1.7-0.3,1.7-1.6
			c-0.1-4.5,0-8.9,0-13.4c0-0.7,0-1.3,0-2c4.5,0,9,0,13.5,0c2.5,0,2.5,0,2.5-2.3c0-3.3,0-6.7,0-10c0-3.7,0-3.7,3.5-3.7
			c9.8,0,19.6,0,29.5,0c5,0,10,0,15,0c0,10,0,20,0,29.9c0,1-0.5,2.1,0.3,2.8c0.4,0.4,0.7-0.3,0.7-0.7c0.7,0,1,0.3,1,1
			c-0.1,1,0.6,1,1.3,1c3.6,0,7.2,0.1,10.9,0c1.5,0,1.9,0.4,1.9,1.9c-0.1,3.6,0,7.2-0.1,10.9c0,1.7,1.1,1.2,2,1.3c0,0.7,0.3,1,1,1
			c-0.1,0.6,0.3,1,0.8,1c1.9,0.1,3.9,0,5.9,0s4-0.4,5.8,0.1c1.4,0.4,0.8,3.1,2.6,3.9c0,2.7,0,5.3,0,8c-1.7,2-1.7,2-4.5,2
			c-3.4,0-6.9,0-10.3,0c-0.7,0-1.3,0.1-1.3,1c-0.9-0.1-1,0.6-1,1.2c0,3.3,0,6.5,0,9.8c-0.9,0.2-2.2-0.5-2.8,0.4
			c-0.8,1.1,0.5,1.7,1.1,2.4c0.2,0.3,0.7,0.5,0.7,0.7c-0.2,0.5-0.7,0.6-1.2,0.6c-3.7,0-7.3,0-11,0c-0.7,0-1.8-0.4-1.8,1
			c-0.7,0-1,0.3-1,1c-1.4,0-1,1.1-1,1.8c0,4.2,0,8.3,0,12.5c0,1.2-0.2,1.8-1.6,1.8c-2.3-0.1-4.7-0.1-7,0c-2.4,0.1-4.9-0.4-7.3,0.4
			c0,2.5-0.1,5-0.1,7.4c0,0.3-0.1,0.8,0,1C79,395.2,77.5,397.6,77,400z"/>
		<path fill="#0E1B2A" d="M78,286c-9.8,0-19.6,0-29.5,0c-3.5,0-3.5,0-3.5,3.7c0,3.3,0,6.7,0,10c0,2.2,0,2.3-2.5,2.3
			c-4.5,0-9,0-13.5,0c-0.1-0.9,0.4-2-1.3-2c-4.3,0.1-8.6,0.1-12.9,0c-1.7,0-1.9,0.7-1.8,2c0.1,0.7,0,1.3,0,2c0,4.1,0,8.2,0,12.4
			c0,1.3-0.3,1.7-1.6,1.7c-3.1-0.1-6.3,0-9.4,0c0-54,0-108,0-162c3.7,0,7.3,0,11,0c0,4.6,0.1,9.3-0.1,13.9c-0.1,1.9,0.6,2.2,2.3,2.1
			c4.1-0.1,8.3-0.1,12.4,0c1.1,0,1.3-0.4,1.4-1.4c0.2-4-0.8-8.1,1-12c0.5-1.1-1-1.6-1-2.6c0-2,0-4,0-6c1.9,0.4,0.9,1.9,1,2.8
			c0.2,3.2,0.1,3.2,3.1,3.2c15,0,30,0,44.9,0c0,1,0,2,0,3c-0.6-0.1-1,0.3-1,0.8c0,3.5,0,7,0,10.4c0,0.5,0.4,0.9,1,0.8
			c0,1.4-1.1,1-1.8,1c-4,0-8,0-11.9,0c-2.2,0-2.3,0-2.3,2.5c0,11.1,0,22.2,0,33.3c0,9,0,17.9,0,26.9c0,0.8-0.7,2.1,1,2.3
			c0.1,0.9-0.4,2.1,1.3,2c3.5-0.1,7,0,10.4,0c2.3,0,2.3,0,2.3,2.5c0,1.2,0,2.3,0,3.5c0,11.9,0,23.8,0,35.8c0,0.8-0.7,2.1,1,2.3
			c0,0.3,0,0.7,0,1c-0.3,0.1-0.8,0.2-0.8,0.3c-0.1,0.6,0.3,0.7,0.8,0.7C78,285.3,78,285.7,78,286z"/>
		<path fill="#0E1B2A" d="M97,10c-3,0.1-3,0.1-3,2.3c0,3,0,6,0,9c0,1.1-0.1,2.1-0.7,3.2c-0.6,1.3-1.1,1.6-2.4,1.6c-4-0.1-8,0-11.9,0
			c-0.3,0-0.7,0-1,0c-1.7,0.2-1,1.5-1,2.3c0,9.9,0,19.8,0,29.7c-4.8,0-9.7,0-14.5,0c-1.2,4.7-0.3,9.5-0.4,14.3
			C62,74,61.2,74,59.9,74c-4.2,0-8.3,0-12.5,0c-1,0-1.5,0.3-1.5,1.4c0,3.7,0,7.3,0,11c0,1.1-0.2,2.1-0.8,3.2c-0.5,1-0.7,1.5-1.9,1.5
			c-4.2-0.1-8.3,0.1-12.5-0.1c-1.7,0-1.8,0.7-1.8,2c0.1,4.3,0,8.7,0,13c-9,0-18,0-27,0C2,71.7,2,37.3,1.9,3c0-1.7,0.3-2.1,2.1-2.1
			C45,1,86,1,127,1c0,2.3,0,4.5,0,6.8c0,1.7-1.2,1.1-2,1.2c-8.6,0-17.2,0-25.7,0C98.5,9,97.2,8.3,97,10z"/>
		<path fill="#353434" d="M487,188c20.1,0,40.3,0,60.4,0c3.1,0,2.6,0,2.6,2.7c0,4,0,8,0,12c0,0.7,0,1.5,0.9,1.3
			c3.5-0.7,6.7,1.3,10.1,1c0,59.7,0,119.3,0,179c-3.6-0.2-7.2,0.4-10.8-0.3c-0.1-3.5-0.2-6.9-0.1-10.4c0.1-6.5,0.1-6.3-6.1-6.3
			c-30.3,0-60.6,0-90.9,0c0.6-1.9,2.2-0.9,3.3-0.9c24-0.1,48-0.1,72-0.1c4.8,0,4.8,0,4.8-4.5c0-1.3-0.1-2.7,0-4
			c0.2-2.1-0.5-4.3,0.3-6.3c2,0,4-0.1,5.9-0.1c3.1,0,6.3,0,9.4,0.3c0.8,0.1,1.3,0.9,1.3-0.5c0-4.2,0-8.3,0-12.5
			c0-2.8-0.6-3.3-3.5-3.3c-3.2,0-6.4,0.2-9.5-0.1c-1.2-0.1-2-0.9-2.4,0.9c-0.1,0.3-0.6-0.3-0.6-0.8c0-10.3,0-20.7,0-31
			c0-0.7-0.3-1-1-1c0.1-1-0.6-1-1.3-1c-3.8,0-7.7,0-11.5,0c-3.2,0-3.2,0-3.2-3c0-9,0-18,0-27c0-1.4-0.1-2.1-1.8-2c-4,0.1-8,0-12,0.1
			c-1.6,0-2.4-0.1-2.3-2.1c0.2-4.3,0.1-8.6,0-13c0-1.4,0.2-2.1,1.8-2c3.8,0.1,7.7,0.1,11.5,0c2.7,0,2.7,0,2.7-2.6
			c0-19.6,0-39.3,0-58.9c0-2.5,0-2.5-2.8-2.5c-8.3,0-16.6,0-25,0C488.5,189,487.2,189.7,487,188z"/>
		<path fill="#494847" d="M436,467c0,8.6,0,17.3,0,25.9c0,3.4-1.4,4.9-4.9,5c-3,0.1-6,0.1-9,0c-1.8-0.1-2.2,0.4-2.2,2.2
			c0.1,12,0,23.9,0,35.9c0,6,0,12,0,18c0,1.7,0,3.3,0,5c-11,0-22,0-33,0c0-1.7,0-3.3,0-5c0.2-2.6-0.4-5.2,0.3-7.8
			c2.5-0.1,4.9-0.1,7.4-0.2c2.6-0.1,5.3-0.1,7.9-0.2c0.8-2.7,0.3-5.6,0.3-8.3c0.1-12.8,0.1-25.6,0-38.4c0-1.7,0.3-2.3,2.2-2.2
			c4.3,0.2,8.6,0,13,0.1c1.5,0,2-0.3,2-1.9c-0.1-8.3,0-16.6,0-24.9c0-0.8,0-1.7,0-2.5c0-2.7,0-2.7,2.5-2.7c3.8,0,7.6,0,11.5,0
			C433.7,466.6,434.4,467.3,436,467z M432.6,468.9c0.1-0.1,0.2-0.2,0.4-0.4c-0.2-0.1-0.4-0.3-0.7-0.3c-0.1,0-0.2,0.2-0.3,0.3
			C432.2,468.6,432.4,468.7,432.6,468.9z"/>
		<path fill="#054A65" d="M2,514c8.1,0,16.3,0,24.4,0c2.5,0,2.5,0,2.5,2.7c0,3.8,0.1,7.7,0,11.5c-0.1,1.7,0.6,1.9,2,1.8
			c3.8-0.1,7.6,0,11.5,0c2.5,0,2.4,0,2.6,2.2c0.1,2.2-0.6,4.5,0.9,6.6c0.3,0.4,0.1,1.5-0.2,1.8c-1.3,1.1-0.5,2.5-0.7,3.7
			c-0.2,1.4,0.4,1.7,1.7,1.6c4-0.1,8-0.1,12,0c2.8,0,3.3,0.6,3.3,3.5c0,3.2,0,6.3,0,9.5c-11,0-22,0-33,0c0-3.8-0.1-7.6,0-11.4
			c0-1.4-0.5-1.6-1.7-1.6c-4.3,0.1-8.6,0-12.9,0c-1.1,0-1.4-0.3-1.4-1.4c0-4.3,0-8.6,0-12.9c0-1.2-0.2-1.8-1.6-1.7
			c-3.1,0.1-6.3,0-9.4,0C2,524.7,2,519.3,2,514z"/>
		<path fill="#949C93" d="M420,559c0-1.7,0-3.3,0-5c43.9,0,87.8,0,131.7,0c1.3,0,2.7,0,4,0c1.2-0.1,1.3,0.5,1.3,1.5
			c-0.1,1.2,0,2.3,0,3.5C511.3,559,465.7,559,420,559z"/>
		<path fill="#949C93" d="M387,554c0,1.7,0,3.3,0,5c-37,0-74,0-111,0c0-1-0.1-2,0-3c0.1-0.7-0.5-1.9,0.8-2c1.1,0,2.7-0.8,3.1,0.5
			c0.9,2.9,3,1.1,4.4,1.3c0.8,0.1,0.5-2.5,2.6-1.9c1.1,0.3,2.3,0.1,3.5,0.1c1.3,0,2.7,0,4,0C325.2,554,356.1,554,387,554z"/>
		<path fill="#1A0A51" d="M2,530c3.1,0,6.3,0.1,9.4,0c1.4,0,1.6,0.6,1.6,1.7c0,4.3,0,8.6,0,12.9c0,1.1,0.4,1.4,1.4,1.4
			c4.3,0,8.6,0,12.9,0c1.2,0,1.8,0.2,1.7,1.6c-0.1,3.8,0,7.6,0,11.4c-8.5,0-17,0-25.5,0c-1.3,0-1.6-0.2-1.5-1.5
			C2,548.3,2,539.2,2,530z"/>
		<path fill="#1A0A51" d="M2,318c3.1,0,6.3-0.1,9.4,0c1.3,0,1.7-0.4,1.6-1.7c-0.1-4.1,0-8.2,0-12.4c5.3,0,10.7,0,16,0
			c0,4.5,0,8.9,0,13.4c0,1.3-0.4,1.7-1.7,1.6c-8.5-0.8-16.9,1.4-25.4,1C2,319.3,2,318.7,2,318z"/>
		<path fill="#B66054" d="M225,42c-1,0-2,0-3,0c-0.6,0-0.9-0.3-1-0.8c-0.1-0.5,0.1-1.1,0.6-1.2c0.6-0.1,1.5,0,1.4-0.9
			c-0.3-3.9,1.2-8.2-2-11.7c0.3-1.6-0.8-1.5-1.8-1.5c-9.3,0-18.7-0.1-28,0.1c-2.4,0-4.9,0.9-7.3,1.6c-1.2,0.4-2.9,0.6-3.3,0.2
			c-1.8-2.5-4.4-1.8-6.8-2c-1.2-0.1-0.9-0.9-0.6-1.8c0.9-2.5,1.6-5.1,1.8-7.8c0.1-1.5-0.7-2.4-1.1-3.6c-0.5-1.4-1.5-1.9-3-1.9
			c-4.4,0.2-8.6-1.6-13.1-1c-0.9,0.1-1-1.2-0.8-1.3c3.2-1.1,1.7-3.7,2-5.7c0.1-0.7,0-1.3,0-2c0.3,0,0.7,0,1,0c0,1.7,0,3.3,0,5
			c0,3,0,3,3.2,3c3.6,0,7.3,0.1,10.9,0c1.6-0.1,1.9,0.6,1.8,2c-0.1,3.5-0.1,7,0,10.4c0,2.7,0.1,2.7,2.8,3.6c3.9,1.2,3.9,1.2,8.7,0.1
			c0.8-0.2,1.6-0.1,2.5-0.1c10.9,0,21.9,0,32.8,0c2.2,0,2.2,0,2.3,3c-0.6-0.1-1,0.3-1,0.8c0,3.5,0,7,0,10.4c0,0.5,0.4,0.9,1,0.8
			C225,40.7,225,41.3,225,42z"/>
		<path fill="#B66054" d="M29,107c-0.2,1.7-1.5,1-2.3,1c-8.2,0.1-16.5,0-24.7,0c0-0.3,0-0.7,0-1C11,107,20,107,29,107z"/>
		<path fill="#353434" d="M29,107c-9,0-18,0-27,0c0-0.3,0-0.7,0-1c9,0,18,0,27,0C29,106.3,29,106.7,29,107z"/>
		<path fill="#1A0A51" d="M272,559c0-1.9,0-3.9,0-5.8c0-0.7,0.1-1.3,1-1.2c0,2.3,0,4.7,0,7C272.7,559,272.3,559,272,559z"/>
		<path fill="#FCC4AB" d="M420,351c-5.7,0-11.3,0-17,0c0-5,0-10,0-15c0.7,0,1-0.3,1-1c4.7,0,9.3,0,14,0c1.4,0,2.1-0.1,2-1.8
			c-0.1-3.8-0.1-7.7,0-11.5c0-2.7,0-2.7,2.6-2.7c9,0,18,0,27,0c2.4,0,2.4,0,2.4-2.3c0-4,0.1-8,0-12c0-1.4,0.8-2.5,1.8-2.6
			c4.3-0.2,8.6-0.1,12.9,0.1c1.7,0.1,2.3,1.4,2.4,3.4c0,3.5,0.1,7,0,10.5c-0.1,1.5,0.9,1.6,1.7,2.3c1,0.7,1.8,0.6,2.8,0.6
			c3.2,0,6.3,0.2,9.5,0c2-0.1,2.1,0.7,2.1,2.3c-0.1,3.8,0,7.7,0,11.5c0,2.2,0,2.3,2.5,2.3c9.8,0,19.7,0,29.5,0c0,4.3,0,8.6,0,13
			c0,3,0,3-3.2,3c-0.7,0-1.3,0-2,0C481.2,351,450.6,351,420,351z"/>
		<path fill="#494847" d="M420,351c30.6,0,61.2,0,91.8,0c0.7,0,1.3,0,2,0c3.2,0,3.2,0,3.2-3c0-4.3,0-8.6,0-13c5.7,0,11.3,0,17,0
			c0,0.5,0.6,1.1,0.6,0.8c0.4-1.8,1.2-1,2.4-0.9c3.1,0.3,6.3,0.1,9.5,0.1c2.9,0,3.5,0.6,3.5,3.3c0,4.2,0,8.3,0,12.5
			c0,1.4-0.5,0.6-1.3,0.5c-3.1-0.4-6.3-0.3-9.4-0.3c-2,0-4,0.1-5.9,0.1c-0.9,2.1-0.2,4.2-0.3,6.3c-0.1,1.3,0,2.7,0,4
			c0,4.5,0,4.5-4.8,4.5c-24,0-48,0-72,0.1c-1.1,0-2.7-1-3.3,0.9c-0.2,1.1-1.4,1.8-1,3.1c0.1,0.5,0,1,0,1.5
			c-0.2,4.1,0.5,8.2-0.4,12.3c-4,0-7.9,0.1-11.9,0.1c-10.5,0-20.9,0-31.4,0c-1,0-2,0.1-3,0c-1.4-0.2-2.4-0.9-2.4-2.5c0-4,0-8,0-12
			c0-1.7,0.9-2.5,2.8-2.5c4-0.1,8-0.1,12,0c1.6,0,2.4-0.1,2.3-2.1C419.9,360.3,420,355.6,420,351z"/>
		<path fill="#494847" d="M451,464c0,1.3-1,1-1.7,1c-4.4,0-8.8,0-13.3,0c0-15.3,0-30.6,0-45.9c0-3,0-3,3.2-3.1c3.7,0,7.3,0.1,11,0
			c1.7-0.1,1.9,0.7,1.8,2c-0.1,2,0,4,0,6c-1.9,0.3-0.9,1.9-1,2.8C451,439.2,451,451.6,451,464z"/>
		<path fill="#1A0A51" d="M291,481c-0.1-1,0.6-1,1.3-1c2.8,0,5.7,0,8.5,0c1.4,0,3-1.3,3.2-2.7c0.1-1,0-2,0-3c0-6.2,0-12.3,0-18.5
			c0-2.4-0.1-4.7,0.9-7.1c1-2.6,0.7-2.9,3.1-2.7c2.2,0.2,4.5-0.7,6.6,0.9c0.7,0.6,2.4,0.4,3.4,0c1.1-0.4,2.7-0.5,2.9-1.9
			c0.2-1.2,1-3-1.6-3.3c-0.6-0.1-0.6-1.5,0-1.5c1.6-0.2,1.7-1.1,1.7-2.3c0-14.5,0-29,0-43.4c-2-8.6-0.7-17.4-1-26.1
			c-0.2-8.7,0-17.3,0-26c0-1.2,0.1-2.3,0-3.5c-0.2-1.7-1.7-2.9-3.4-3c-2.7,0-5.4-0.5-8,0.1c-2.4,0.6-2.4-1.9-4.1-2.3
			c-1.1-0.3-0.6-2.4-0.1-3.9c1-2.6,0.4-6-0.3-8.4c-0.4-1.2-0.7-1.6-1.9-1.5c-1.5,0.1-3,0.1-4.5,0c-1.3-0.1-0.6-1.3-0.8-2
			c1.4-0.5,3.8,1.3,4.2-1.7c0-0.2,0.9-0.3,1.3-0.3c0.5,0,1.3-0.1,1.3,0.4c-0.2,2.4,3.5,1.4,3.2,4.1c-0.3,3,0.1,6-0.1,8.9
			c-0.1,1.4,0.5,2.4,1.1,3.6c0.1,0.3,0.2,0.8,0.4,0.8c1.5,0.1,3,0.3,4.4,0.1c1.1-0.2,3.2,1.3,3.3-1.5c0-0.2,0.5-0.5,0.8-0.4
			c1.1,0.2,2.7-0.8,3.1,0.6c0.5,2,3.7,1.5,3.1,4.1c-0.2,0.9,0,2,0,3c0,20.1,0,40.2,0,60.2c-1.9,0.4-0.9,1.9-1,2.8
			c-0.1,13.3,0,26.6-0.1,39.9c0,2-0.1,4-0.2,5.9c-2.1,0.8-4.2,0.2-6.4,0.3c-2.2,0.1-4.3,0-6.5,0c0.1-0.6-0.3-0.9-0.8-1
			c-0.7-0.1-1.3,0-1.2,1c-1.7,0.2-1,1.5-1,2.3c-0.1,8.2,0,16.3,0,24.5c0,1.6,0.5,3.8-0.3,4.8c-1.1,1.3-3.4,0.4-5.2,0.4
			C297.3,481.1,294.2,481,291,481z"/>
		<path fill="#949C93" d="M324,400c1,0,2,0,3,0c0,12.2,0,24.3,0,36.5c0,0.8,0,1.7,0,2.5c0,1.4-1,1-1.8,1c-0.7,0-1.3-0.1-1.3-1
			c0-1.2,0-2.3,0-3.5C324,423.6,324,411.8,324,400z"/>
		<path fill="#080203" d="M403,336c0,5,0,10,0,15c-0.3,0-0.7,0-1,0c0-4.5,0-8.9,0-13.4c0-1.3-0.5-1.6-1.7-1.6c-9.1,0-18.2,0-27.3,0
			c-0.9,0-1.9,0.3-2.9-0.3c-0.6-0.3-0.6-0.7,0-0.4c0.2,0.1,0.5-0.2,0.8-0.3c10.7,0,21.3,0,32,0C403,335.3,403,335.7,403,336z"/>
		<path fill="#353434" d="M451,464c0-12.4,0-24.8,0-37.2c0-0.9-1-2.4,1-2.8c0,12.4,0,24.8,0,37.2C451.9,462.1,452.9,463.7,451,464z"
			/>
		<path fill="#1A0A51" d="M290,492c-0.6-0.1-1,0.3-1,0.8c-0.1,1.5,0,3,0,4.5c0,0.2-0.3,0.4-0.5,0.7c-0.1-0.3-0.4-0.6-0.4-0.8
			c0.1-1.3-1-0.9-1.6-1.3c-0.7-0.4-0.7-1.5-0.1-1.6c1.9-0.2,1.7-1.5,1.7-2.8c0-3.3,0-6.7,0-10c0-1,0.3-1.8,1.3-1.4
			c1.5,0.5-0.5,1-0.1,1.6c0.1,0.2,0.5,0.3,0.8,0.4C290,485.3,290,488.7,290,492z"/>
		<path fill="#949C93" d="M333,445.4c0.2,1.4-0.8,2.1-1.7,2.6c-0.5,0.3-1.5-0.1-1.8,0.2c-1.1,1-2.4,1.5-3.3,0.3c-1-1.4,1-2.5,1-3.9
			c0-0.4,0.7-0.5,1.2-0.5c1.3,0,2.6,0,3.9,0C333.1,444,333,444.8,333,445.4z"/>
		<path fill="#949C93" d="M324.9,450.4c-0.1,0.2-0.3,0.6-0.5,0.6c-1,0.1-2,0-3,0c-0.5,0-1.3-0.1-1.3,0.4c0.1,0.8,0.9,0.6,1.5,0.6
			c0.5,0,1,0,1.5,0c0.3,0,0.5,0.3,0.8,0.4c-0.2,0.2-0.5,0.5-0.7,0.5c-0.6,0.1-1.5-0.1-1.9,0.2c-1,1-2.1,1.1-3.1,0.5
			c-0.9-0.6,0.3-2.3-1.1-3c0,0,0.2-0.6,0.3-0.6c2.3,0,4.7,0,7,0C324.6,450,324.7,450.2,324.9,450.4z"/>
		<path fill="#080203" d="M338,384c0.1-0.6-0.3-1.8,0.3-1.8c4.6-0.2,9.1-0.8,13.6,0.3c0,0,0,0.3,0,0.5c-2.7,0-5.3,0-8,0
			C342,383,340.2,384.7,338,384z"/>
		<path fill="#1A0A51" d="M273,536c-1.4-0.3-1.4-2.9-3.5-2.1c-0.3,0.1-0.5-0.6,0-1c0.6-0.5,0.7-1.1,0.3-1.7
			c-0.5-0.6-1.3-1.2,0.3-1.3c1-0.1,2,0,2.9,0C273,532,273,534,273,536z"/>
		<path fill="#080203" d="M357,367c-0.1-0.6,0.3-1,0.8-1c3.8,0,7.6,0,11.4,0c0.5,0,0.9,0.4,0.8,1C365.7,367,361.3,367,357,367z"/>
		<path fill="#353434" d="M436,467c-1.6,0.3-2.3-0.4-2-2c0.7,0,1.3,0,2,0C436,465.7,436,466.3,436,467z"/>
		<path fill="#494847" d="M307,449c-0.1-0.9,0.6-1.1,1.2-1c0.5,0.1,0.9,0.4,0.8,1C308.3,449,307.7,449,307,449z"/>
		<path fill="#FBA47D" d="M403,335c-10.7,0-21.3,0-32,0c0-5.1,0-10.2,0-15.3c0-1.1-0.3-1.5-1.5-1.8c-1.8-0.5-2.8,2-4.4,0.7
			c-1.6-1.3-3.5-0.4-5.2-0.6c-1.6-0.2-3.3,0-4.9,0c0-1.7,0-3.3,0-5c0-0.3,0-0.7,0-1c0-8,0-16,0-24c1-0.1,1,0.6,1,1.3
			c0,3.5,0.1,7,0,10.5c0,1.6,0.1,2.4,2.1,2.3c3.1-0.2,6.3,0,9.5-0.1c2.8,0,3.4-0.6,3.5-3.4c0-3.7,0.1-7.3,0-11
			c0-1.3,0.4-1.7,1.7-1.6c1.2,0.1,2.3,0,3.5,0c8.3,0,16.6,0,25,0c0.6,0,1.7,0.3,1.8-0.4c0.3-2-0.1-4.2,1.1-6c-2.1-2.1-0.7-4.7-1-7.1
			c-0.3-2.4-0.1-2.4-2.4-2.4c-13.8,0-27.6,0-41.4,0c-4.3,0-4.3,0-4.3,4.5c0,3.8,0,7.7,0,11.5c-2,0-4,0-6,0c-0.7,0-1.3,0-2,0
			c-2.3,0-4.7,0-7,0c0.3-0.7,0.7-1.3,1-2c2.3,0,4.5,0,6.8,0c1.7,0,1.1-1.2,1.2-2c1.5,0,3,0,4.5,0c0.2,0,0.4-0.5,0.5-0.7
			c0.1-0.5-0.1-1.2-0.5-1.2c-2.7,0.4-4-0.5-3.4-3.4c-1.6-1.4-1-3.3-1-5.1c0-16.9,0-33.9,0-50.8c0-1.3,0.1-2.7,0-4
			c-0.1-1.3-1.3-0.6-2-0.8c-1.3,0-2.7,0-4,0c-1,0-2,0-3,0c0-0.7,0-1.3,0-2c0-8.8-1.1-8,7.8-8c1.8,0,3.6,0,5.5,0c0.5,0,0.9-0.4,0.8-1
			c0.7,0,1-0.3,1-1c0-1.3,0-2.7,0-4c0-16,0-32,0-48c0-0.7,0-1.3,0-2c0-3.3,0-6.7,0-10c1.7,0,3.3,0,5,0c1,0,2,0,3,0
			c16.7,0,33.3,0,50,0c1,0,2,0,3,0c0.7,0,1.3,0.1,2,0c1.4-0.2,2.1,0.1,2,1.8c-0.1,3.5,0,7,0,10.5c0,3.7,0,3.7,3.5,3.7
			c4.2,0,8.3,0,12.5,0c0,7.5-0.1,15,0,22.5c0,3.1-0.4,6.3,0.3,9.4c3.1,0.1,6.3,0.1,9.4,0.2c2,0,4,0.1,5.9,0.2
			c0.8,2.1,0.3,4.2,0.3,6.3c0.1,13.5,0,27,0,40.4c0,1.3,0,2.1,1.8,2.1c4.5-0.1,9-0.1,13.5,0c1.7,0,1.8-0.7,1.8-2
			c-0.1-3.8,0-7.7,0-11.5c0-2.5,0-2.5,2.3-2.5c3.5,0,7,0,10.5,0c3.2,0,3.2,0,3.2-3c0-10,0-20,0-30c0.7,0,1.3,0,2,0
			c0.2,1.7,1.5,1,2.3,1c8.3,0.1,16.6,0,25,0c2.7,0,2.8,0,2.8,2.5c0,19.6,0,39.3,0,58.9c0,2.5,0,2.6-2.7,2.6c-3.8,0-7.7,0.1-11.5,0
			c-1.6-0.1-1.9,0.6-1.8,2c0.1,4.3,0.2,8.7,0,13c-0.1,2,0.7,2.1,2.3,2.1c4-0.1,8,0.1,12-0.1c1.7-0.1,1.8,0.7,1.8,2c-0.1,9,0,18,0,27
			c0,3,0,3,3.2,3c3.8,0,7.7,0,11.5,0c0.7,0,1.4,0,1.3,1c0,0.7,0.3,1,1,1c0,10.3,0,20.7,0,31c-5.7,0-11.3,0-17,0
			c-9.8,0-19.7,0-29.5,0c-2.5,0-2.5,0-2.5-2.3c0-3.8-0.1-7.7,0-11.5c0-1.6-0.1-2.4-2.1-2.3c-3.1,0.2-6.3,0.1-9.5,0
			c-0.9,0-1.8,0.1-2.8-0.6c-0.9-0.7-1.8-0.8-1.7-2.3c0.2-3.5,0.1-7,0-10.5c0-2-0.6-3.3-2.4-3.4c-4.3-0.3-8.6-0.3-12.9-0.1
			c-0.9,0-1.8,1.1-1.8,2.6c0.1,4,0.1,8,0,12c0,2.3,0,2.3-2.4,2.3c-9,0-18,0-27,0c-2.5,0-2.5,0-2.6,2.7c0,3.8-0.1,7.7,0,11.5
			c0.1,1.7-0.7,1.8-2,1.8c-4.7-0.1-9.3,0-14,0C403.7,335,403.3,335,403,335z M371,205c-0.3,0.1-0.7,0.4-0.8,0.3
			c-0.6-0.3-0.6,0.2,0,0.4c0.1,0,0.2,0.3,0.4,0.3c10.4,0,20.7-0.1,31.1-0.2c0.1,0,0.2-0.5,0.3-0.8c0.7,0,1-0.3,1-1c0-0.7,0-1.3,0-2
			c0.7,0,1.3,0,2,0c1,0.1,1.3-0.8,1-1.2c-1.9-2.5-0.7-5.4-0.9-8.1c-0.2-2.7,0-2.7,2.5-2.7c3.8,0,7.6,0,11.4,0c0.6,0,1.4,0.4,1.8-0.3
			c0.3-0.6-0.3-0.7-0.8-0.7c0-0.3,0-0.7,0-1c1.4-2,1.4-2,1.1-4.5c-0.1-0.5,0-0.9,0.2-1.4c1.6-3.1,0.3-6.4,0.7-9.7
			c-1.3-0.4-0.5-2.6-2.8-2.6c-15.8,0.2-31.5,0.2-47.3,0c-2.2,0-1.6,2.5-3.5,2.4c-0.7,0-0.6,2.1-0.3,2.7c2.1,3.3,0.7,7.2,1.7,10.7
			c1.1,4,0.3,8.6,0.3,12.9c0,0.5,0.1,1.3-0.4,1.3c-1.8,0-1.8,1.2-1.6,2.3c0.4,1.4,1.4,2.1,3,1.9C371,204.3,371,204.7,371,205z
			 M359,171.6c0-8.5,0-17,0-25.4c0-1,0-2,0-3c0-0.6-0.2-1-0.7-1.1c-0.6-0.1-1.4-0.2-1.9,0.1c-0.7,0.3-0.7,1.1-0.1,1.6
			c1.2,1.1,1.1,3.1,0.6,3.6c-1.4,1.5-0.8,3.1-0.8,4.7c-0.1,14.6,0,29.3,0,43.9c0,1,0,2,0,3c0,0.9,0.5,1,1.2,1.1
			c1.1,0.1,1.8,0,1.8-1.5C359,189.5,359,180.5,359,171.6z"/>
		<path fill="#FDFDFD" d="M78,286c0-0.3,0-0.7,0-1s0-0.7,0-1s0-0.7,0-1c0-15,0-30,0-45c-0.1-0.3-0.2-0.8-0.3-0.8
			c-0.6-0.1-0.7,0.3-0.7,0.8c-1.8,0.2-3.2-1.1-5-1.1c-1.5,0-2.7,1.3-4.2,0.5c-1.5-0.8-3.2-0.2-4.8-0.3c-1.7-0.2-1-1.5-1-2.3
			c-0.1-9,0-17.9,0-26.9c0-11.1,0-22.2,0-33.3c0-2.5,0-2.5,2.3-2.5c4,0,8,0,11.9,0c0.7,0,1.8,0.4,1.8-1c0-4,0-8,0-12c0-1,0-2,0-3
			c4.3,0,8.6,0,12.9,0c2.3,0,2.3,0,4.1-2c0.3,0.1,0.7,0.1,0.8,0.4c0.4,0.5,0,1.3,0.7,1.6c0.2-0.4,0.5-0.8,0.5-1.3
			c0-4.2,0-8.5,0-12.7c0.3,0,0.7,0,1,0c0.7,0,1-0.3,1-1c0.3,0,0.7,0,1,0c0.4,1.9,1.9,0.9,2.8,1c16.5,0.1,33,0,49.5,0.1
			c1.5,0,3.1-0.3,4.4,0.3c1.1,0.6-0.3,2.6,0.8,3.6c1.7,1.4-0.4,2.2-0.5,3.4c0,1.6,0.9,3.8-0.6,4.6c-1.2,0.7-3.2,0.2-4.9,0.2
			c-2.7,0-5.3,0-8,0c-1.4,0-2.5,0.1-2.8-1.7c-0.1-0.5-0.9-0.4-1.3-0.2c-0.8,0.4,0,1.9-1.6,2c-1.7,0.1-1.7-1-2.2-1.9
			c-0.1-0.2-0.6-0.2-0.9-0.2c-1.5,0-3,0-4.5,0c-0.7,0-1,0.2-1.3,1c-0.6,1.6-1.5,1.6-1.9-0.2c-0.2-0.9-0.8-1-1.4-0.8
			c-0.5,0.1-0.6,0.7-0.6,1.2c0,4.5,0.1,9,0,13.5c0,1.7,1.1,1.2,2,1.3c0,5.3,0,10.7,0,16c-1.4,0.5-3.6-1.3-4.4,1.7
			c-0.2,0.8-3,0.9-3.4-0.1c-1.2-3.2-2.6-1.5-3.9-0.4c-1.4,1.3-2.6,1.3-3.8-0.1c-0.3-0.4-0.6-0.9-1.1-1c-0.6-0.2-1.5-0.2-1.5,0.7
			c-0.1,4.8-0.1,9.6,0,14.5c0,1.3,1.3,0.6,2,0.8c0,21.3,0,42.7,0,64c-0.7,0.2-1.9-0.5-2,0.8c-0.1,2.7,0,5.3-0.1,8
			c0,1.2,0.7,1.2,1.6,1.2c3.5,0,7-0.1,10.5,0c2.6,0.1,3.4,1.3,2.6,3.8c-0.1,0.3-0.6,0.5-0.6,0.7c-0.1,0.5-0.2,1.1,0.4,1.3
			c0.4,0.1,1.3,0,1.3-0.1c0.3-1.7,1.3-1.8,2.7-1.8c3.5,0.1,7,0.1,10.5,0c1.7,0,3.2-0.2,3.6,2c0,0.1,0.9,0,1.4,0c0,0.7,0,1.3,0,2
			c-0.7,0.1-1.9-0.5-2,0.8c-0.1,2,0,4,0,6c0,1.2,0.7,1.2,1.6,1.2c1.9,0,1.9,0.9,0.8,2.1c-0.5,0.6-0.7,1.3,0,1.7c0.9,0.5,0.3,1.8,1,2
			c1.4,0.4,2.9,0.3,4.3-0.1c0.1,0,0.3-0.3,0.3-0.4c-0.2-1.2,0.5-2.6-0.7-3.7c-0.6-0.5-0.2-2-1.7-1.7c-0.9,0.2-1.7-0.1-1.5-1.3
			c0.1-0.9,0.9-0.7,1.5-0.7c1,0,2.8-0.2,2.9,0.1c0.8,2.9,3,1.7,4.7,1.9c1.2,0.2,1,0.9,0.6,1.8c-0.9,2.1-0.8,2.2,1.1,2.2
			c9.2,0,18.3,0,27.5,0c1.8,0,4.2-0.6,5.3,0.4c1.1,1,1,3.4,1.5,5.3c0.1,0.3,0,0.7,0,1c0.6,2.8,1.2,3.3,4,3.4c0.3,0,0.7,0,1,0
			c1.3,0.1,2.9-0.6,3.3,1.7c0.1,0.6,2.1,0.7,2.5-0.1c0.4-1,0.6-1.8,1.9-1.5c1,0.2,2.2-0.6,2.5,1.4c0.1,1,2.5,1,2.7,0
			c0.3-1.5,1-1.4,2-1.4c3.2,0,6.3,0.1,9.5,0c1.3,0,1.7,0.4,1.8,1.6c0.1,0.6,1.4,0.7,1.5,0.1c0.3-1.8,1.4-1.8,2.8-1.7
			c0.5,0,1.3,0.2,1.3-0.3c-0.1-2.5,2.2-4.8,1.1-6.9c-1.3-2.5-0.5-4.8-0.9-7.2c-0.2-1.4,0.5-1.6,1.7-1.6c1.8,0.1,3.7,0.1,5.5,0
			c1.3-0.1,0.6-1.3,0.8-2c0.7,0,1.3,0,2,0c-0.2,1.3,0.1,2.1,1.8,2c1.5-0.1,2.8,0,2.2-2c0.6-0.1,1.6,0.4,1.8-0.4
			c0.2-1.4,0.2-2.9,0-4.3c-0.1-0.7-1.2-0.2-1.8-0.4c0-2.3,0-4.7,0-7c0.8,0,1.7,0,2.5,0c2.9,0.1,3.3,0.5,3.6,3.3c0.1,0.9-1,2.5,1,2.7
			c0.5,0,1.2,0.2,1.4-0.1c0.9-1,0.5-1.9,0-3c-1.2-2.8,0.3-4.8,3.3-4.9c1.2,0,2.3,0.1,3.5,0c1.3-0.2,0.6-1.3,0.8-2
			c0.7-0.1,1.9,0.5,1.9-0.8c0-2,2.2-3.9,0.2-6.2c-0.7-0.9-0.2-2.9-0.1-4.4c0.1-1.7,0.9-2.5,2.7-2.6c2-0.1,4,0,6,0
			c0.4,0,1.2,0.3,1.2,0.5c0.1,1.1,0.1,2.3,0,3.5c-0.1,1.1-0.9,1.8-1.8,2c-1.2,0.2-1.4,1-1.1,1.7c1.3,2.4,0.9,5,1,7.6
			c0,0.5,0.3,0.8,1,0.8c0.6,0,1-0.3,1-0.8c0.1-1.3,0-2.7,0-4c0-2.2,0-2.2,3-2.3c0.2,1.1,1.1,1.8,1.1,3.1c-0.2,3.3-0.1,6.6-0.1,9.9
			c-0.9,0.1-2-0.4-2,1.3c0.1,6.3,0,12.6,0,18.9c0,0.5,0.4,0.9,1,0.8c0.2,0,0.4-0.1,0.5,0c1,0.7,0,2,0.7,2.6c0.9,0.8,2.2,0.3,3.3,0.3
			c1.5,0.1,3,0,4.5,0c-0.3,1.3,0.4,2.2,1.4,2.8c0.7,0.4,1.6,0.4,1.6-0.9c0-0.7,0-1.3,0-2c1.6,0,3.2,0,4.8,0c0.7,0,1.3,0.1,1.2,1
			c0,3,0,6,0,9c0,0.3,0,0.7,0,1c-1.9-0.4-3.3,0.7-4.9,1.4c0,2.6-2,1.4-3.2,1.6c-0.6,0.1-0.9-0.3-0.9-0.8c-0.1-0.5,0.1-1,0.6-1.1
			c0.8-0.3,2.3,0.7,2.3-0.9c0-2-1.7-0.8-2.6-1.1c-0.6-0.2-1.3,0-2,0c-1.4,0-1.9,0.7-1.1,1.7c1.5,1.7,0.6,2-1,2.5
			c-0.7,0.2-0.2,1.2-0.4,1.8c-0.3,0-0.7,0-1,0c-1,0.4-2.5-0.9-3,1c-1.2-0.3-2-1-2-2.3c0-1.1,0-2.3,0-3.4c0-0.5-0.1-0.9-0.5-1.2
			c-0.2,0.4-0.2,0.9-0.5,1.3c-0.5,0.8-1,1.5-1,2.5c-0.2,4.1-0.3,4.1,4,4.2c0,0.3,0,0.7,0,1c0,1,0,2,0,3c-0.3,0-0.7,0-1,0
			c-3,0.1-3,0.1-3,2.8c0,13.4,0,26.8,0,40.2c-1.8,0-3.6,0-5.4,0c-2.4,0-4.9,0.1-7.3,0.2c1.1,2.2,0.6,4.5,0.7,6.8c0,0.7,0,1.3,0,2
			c-0.7,0-1.3,0-2-1c0-1.2-0.1-2-0.3-2.8c-0.1-0.2-1-0.3-1.2-0.1c-0.7,0.7-0.7,3.2,0.1,3.8c0.3,0.2,0.9,0,1.4,0c0-0.5,0-1,0-1
			c0,4.4,0,7.9,0,11.3c0,2.8,0,5.6,0,8.4c0,1.7-1.1,1.2-2,1.3c0.5-1.4-0.6-2.6-1.2-3.4c-0.8-1.2-2.7-0.7-4.1-0.5
			c-1.4,0.2-0.6,1.6-0.7,2.5c-0.1,1.1,0,2.3,0,3.5c-1.6-0.2-3.4,0.6-4.8-0.4c-1-0.7,0.4-2.6-0.8-3.6c-0.1-0.1-0.3,0-0.5,0
			c0-0.7,0-1.3,0-2c1.4-1.9,1.4-4.1,0-6c0-3.3,0-6.7,0-10c0.3,0,0.7,0,1,0c1-0.3,2.8,0.8,2.9-0.8c0.2-2.4-1.9-0.8-2.9-1.2
			c-0.2-0.8,0.5-1.9-1-2c0-1.3,0-2.7,0-4c0-0.8,0.1-1.5-0.6-2.2c-0.6-0.5-1.4-0.8-1.4-1.8c0-0.8,0-1.6,0-2.5
			c0.1-0.9-0.1-1.6-1.2-1.6c-1.1,0-2,0-1.8,1.5c0.1,1.2,0.3,2.5-1.6,2.7c-0.7,0.1-0.2,1.2-0.3,1.8c-0.5,0-1,0.1-1.5,0
			c-1.3-0.3-3.2,1.1-3.9-1.6c-0.2-1-2.5,0-3.7,0.9c-2.2,1.7-2,4-1.9,6.2c0,0.9-0.2,1.8,0.6,2.8c0.6,0.7-0.9,1.7-0.6,2.9
			c0.6,2.4-0.4,3.4-2.9,2.9c-0.3-0.1-0.8,0.1-0.8,0.3c-0.3,2.6-2.3,1.6-3.7,1.7c-2,0.1-4.1,0.4-6-0.1c-2.4-0.5-2.9,1.8-4.4,2.6
			c-1.2,0.6,0.5,2.1,0.9,2.8c1,1.6,0.9,3.1,0.8,4.7c0,1.3,0.6,2.8-0.3,3.8c-0.5,0.5-1.8,0.2-2.8,0.3c-0.2,0-0.4,0-0.4,0.1
			c-0.8,3.1-3.3,1.6-5.1,1.8c-1.5,0.2-3-0.1-4.5,0.1c-1.3,0.1-0.6,1.3-0.8,2c-0.7,0-1,0.3-1,1c-1.3-0.2-2.5,0.1-1.9,1.7
			c0.4,1.2,0.4,2.7,1.9,3.3c0,2,0,4,0,6c-1,0.4-2.8-1.2-3,1.3c-0.1,0.9-0.9,0.7-1.5,0.7c-2.7,0-5.3,0-8,0c-1,0-1.5-0.3-1.5-1.4
			c0-8.5,0-17,0-25.4c0-0.7,0.2-1.2,1.1-1.2c3,0,6,0,9,0c1,0,0.8,0.8,1,1.3c0.4,1,1.7,1,1.8,0.2c0.2-1.3,1.6-2.1,1.2-3.5
			c0-0.3,0-0.7,0-1c0.9-0.1,2.1,0.4,2-1.3c-0.1-3.3,0-6.7,0-10c0-1.2,0.2-1.8,1.6-1.7c2.2,0.1,4.3,0,6.5,0c1.3,0,3.1-0.6,3.2,1.8
			c0,0.1,1.2,0.2,1.2,0.1c1-2.6,3.6-4.3,3.5-7.6c-0.2-9-0.1-18-0.1-27c0-0.5,0.1-1,0-1.5c-0.2-1.3-1.3-0.6-2-0.8c-0.1-3-0.1-3-2.2-3
			c-1.6,0-3.6-0.8-4.2,1.8c0,0.2-2.1,0.2-2.1,0c-0.6-2.6-2.6-1.7-4.2-1.8c-2.1-0.1-2.1,0-2.2,3c-0.7,0-1,0.3-1,1
			c-1.3-0.2-2.1,0.1-2,1.8c0.1,1.5,0,2.8,2,2.2c0,1.3,0,2.7,0,4c-0.3,0.1-0.8,0.2-0.8,0.3c-0.1,0.6,0.3,0.7,0.8,0.7c0,1,0,2,0,3
			c-2.8-0.1-2.8-0.1-3-2.2c0-0.2,0-0.3,0-0.5c0-0.6,0-1.3-0.9-1.4c-1.2-0.1-1.1,0.8-1.1,1.6c-0.1,0.8,0.4,2.1-0.4,2.2
			c-2.5,0.2-1.4,2-1.6,3.2c-1.3,0-2.7,0-4,0c-0.3-1.2,1.1-3.2-1.8-3c-2.1,0.1-2.1,0-2.2,3c-0.7,0-1,0.3-1,1
			c-0.9,0.2-2.2-0.5-2.7,0.4c-0.4,0.7-0.6,2.1-0.2,2.8c0.7,1.1,0.5,3.4,2.9,2.8c0,1,0,2,0,3c-2.1-0.5-1.7,0.9-2.1,2.2
			c-0.3,0.9-0.2,2.8-2,2.7c-1.4,0-1.2-1.7-1.7-2.5c-0.8-1.2-1.1-3.5-2.4-3.2c-1.6,0.3-0.4,2.5-0.7,3.9c-0.2,0.7,0.4,2-0.8,1.9
			c-1.4-0.1-3.1,1-4.2-1c-0.8-1.5-1.7-3.2-0.8-4.5c2.2-3.3,0.1-6.1-0.4-9.1c-0.1-0.7-1.2-0.2-1.8-0.4c0-1.3,0-2.6,0-4
			c0-0.6-0.2-0.9-0.8-1c-0.5-0.1-1.2,0.1-1.2,0.5c0,1-0.2,1.5-1.3,1.5c-4.5,0-8.9,0-13.4,0c-1.1,0-1.3-0.5-1.4-1.4
			c-0.1-0.9,0.9-2.7-1.1-2.5c-1.5,0.1-0.7,1.6-0.8,2.4c-0.1,1.6-1.6,2.8-1,4.5c-1.3,0-2.7,0-4,0c0.5-1.9-1.1-3.3-1-5.1
			c0.1-2,0-4,0-6c0-0.5,0-1,0-1.5c0-0.7,0.1-1.3-0.8-1.5c-0.8-0.1-1.1,0.5-1.6,0.9c-0.8,0.6-0.7,1.5-0.5,2.3c0.6,3.1-0.9,6-1.1,9
			c-0.1,1.3-1.3,0.6-2,0.8c0-0.7,0-1.3,0-2c0-2.7,0-5.3,0-8c0-1-0.1-2,0-3c0.4-2-0.6-2.1-2.2-2.1c-4.3,0.1-8.5,0-12.8,0
			c-0.7,0-1-0.3-1-1c0-2,0-4,0-6c0-1.3,0-2.7,0-4c0-1,0-2,0-3c-0.2-0.8,0.5-1.9-1-2c-5,0-10,0-15,0c0-0.7-0.3-1-1-1
			c0-9.9,0-19.8,0-29.7c0-0.8,0.7-2.1-1-2.3C88,286,83,286,78,286z M212,310c0.8,0,1.7,0.1,2.5,0c1.5-0.3,3.2,0.9,4.5-0.7
			c-0.9-2.5-3-1-4.5-1.2c-2.8-0.3-5.6-0.1-8.4-0.1c-0.6,0-0.9,0.3-1,0.8c-0.1,0.7,0.1,1.3,1,1.3C208,310,210,310,212,310z
			 M263.5,360c-2.5,0-2.5,0-2.5,1.2c0,1.7,0.9,2.7,2.5,2.8c1,0.1,2.8-2.1,2.5-3.3C265.6,359.2,264.3,360.3,263.5,360z M255,366.5
			c0.1-1.2,0.2-2.3-1-3.1c-0.5-0.4-1-0.3-0.9,0.1c0,1.1-0.4,2.2,0.3,3.3c0.3,0.4,0.7,1,1,1C255.3,367.8,254.9,367,255,366.5z
			 M114.2,280c0.5-0.2,1.6,0.5,1.8-0.8c0.2-1.7-1.1-1.1-2-1.2c-0.5,0-1-0.1-1.5,0c-0.2,0.1-0.4,0.5-0.5,0.7c-0.1,0.5,0,1,0.5,1.2
			C113,280.1,113.5,280,114.2,280z M194.1,394c0.7-0.2,1.7,0.5,1.9-0.8c0.1-0.7-0.1-1.3-1-1.2c-0.7,0.1-1.7-0.5-2,0.7
			C192.9,393.4,193.1,394.1,194.1,394z M205,392.8c-0.2-0.5-0.4-0.8-1-0.8c-0.9,0-1.1,0.6-1,1.3c0.1,0.5,0.4,0.8,1,0.8
			C204.9,394,205,393.5,205,392.8z M270.5,300c-0.1,0.1-0.3,0.2-0.3,0.3c0.1,0.2,0.2,0.4,0.3,0.7c0.1-0.1,0.3-0.2,0.3-0.3
			C270.8,300.4,270.6,300.2,270.5,300z M98.6,152.1c-0.2,0.1-0.4,0.2-0.6,0.4c0.1,0.1,0.2,0.3,0.3,0.3c0.2-0.1,0.4-0.2,0.7-0.3
			C98.9,152.4,98.8,152.3,98.6,152.1z M260.1,365.6c0.1,0.1,0.2,0.2,0.4,0.4c0.1-0.2,0.3-0.4,0.3-0.7c0-0.1-0.2-0.2-0.3-0.3
			C260.4,365.2,260.3,365.4,260.1,365.6z"/>
		<path fill="#080203" d="M100,141c-0.3,0-0.7,0-1,0c-0.7,0-1,0.3-1,1c-0.3,0-0.7,0-1,0c0-0.7-0.3-1-1-1c-0.1-0.3-0.2-0.8-0.3-0.8
			c-0.6-0.1-0.7,0.3-0.7,0.8c-1.5,0.3-1.2,1.2-0.5,2c0.3,0.3,1.6-0.2,1.2,0.7c-1.6,3.4-0.3,6.9-0.8,10.4c-1.7,2-1.7,2-4.1,2
			c-4.3,0-8.6,0-12.9,0c-15,0-30,0-44.9,0c-3,0-2.9,0-3.1-3.2c-0.1-0.9,1-2.4-1-2.8c0-0.7,0-1.3,0-2c1.4-1.9,1.4-4.1,0-6
			c-0.3-1.6,0.4-2.3,2-2c14.9,0,29.9,0,44.8,0c1.6,0,2.4-0.1,2.3-2.1c-0.2-4.6-0.1-9.3-0.1-13.9c0-0.7,0.3-1,1-1
			c20.4,0,40.8,0,61.2,0c2.7,0,2.7,0,2.8-3c0-4.3,0-8.7,0-13c26.4,0,52.8,0,79.3,0c2.7,0,2.7,0,2.7-2.5c0-4.2,0-8.3,0-12.5
			c0-0.3,0-0.7,0-1c27,0,54,0,81,0c0.5,0,1.1,0.1,0.8,0.7c-0.4,0.7-1.2,0.3-1.8,0.3c-4.4,0-8.9,0.1-13.3,0c-1.3,0-1.6,0.4-1.6,1.7
			c0.1,4.4,0,8.9,0,13.3c-10.3,0-20.6,0-31,0c-1.3,0-2,0-2.1,1.8c-0.2,4.8,0.7,9.5-0.5,14.3c-4.8,0-9.7,0-14.5,0c-0.3,0-0.7,0-1,0
			c-0.7,0-1.3,0-2,0c-19.3,0-38.7,0-58,0c-0.7,0-1.3,0-2,0c-1,0.4-2.5-0.9-3,1c0,4,0,8,0,12c0,0.3,0,0.7,0,1s0,0.7,0,1
			c0,1.1,0.2,2.3-1.6,2c-0.5-0.1-0.9,0-1.4,0c0.1-0.6-0.3-0.9-0.8-1c-0.7-0.1-1.3,0-1.2,1c-1.3,0-2.7,0-4,0c0.1-0.6-0.3-0.9-0.8-1
			c-0.7-0.1-1.3,0-1.2,1c-2,0-4,0-6,0c0.1-0.6-0.3-0.9-0.8-1c-0.7-0.1-1.3,0-1.2,1c-0.3,0-0.7,0-1,0c-15.8,0-31.6,0-47.4,0
			c-1.5,0-3,0.2-4.5,0C102.5,139.7,101.6,141.5,100,141z"/>
		<path fill="#FBFBFB" d="M241,123c0.3,0,0.7,0,1,0c4.8,0,9.7,0,14.5,0c1.2-4.7,0.3-9.5,0.5-14.3c0.1-1.7,0.8-1.8,2.1-1.8
			c10.3,0,20.6,0,31,0c1.5,0,3,0,4.5,0c3.8,0.1,7.6-0.4,11.3,0.3c0.1,3.6,0.1,7.3,0.2,10.9c0,0.7,0,1.3,0,2c0,2.7,0,2.7-2.5,2.7
			c-3.8,0-7.7,0.1-11.5,0c-1.4,0-2.1,0.2-2,1.8c0.1,4,0.1,8,0,12c0,2.5-0.7,3.1-3.2,3.2c-3.5,0.1-7,0-10.5,0c-2.8,0-3.3,0.6-3.3,3.5
			c0,9.5,0,19,0,28.5c-10.7,0-21.3,0-32,0c-1.8,0-3.6,0-5.4,0c-3.4,0-6.9,0-10.3,0c-1.7,0-1.2-1.1-1.2-2c1.4-1.3,1.4-2.7,0-4
			c0-2,0-4,0-6c1.5-0.1,0.8-1.2,1-2c0-0.7,0-1.3,0-2c4.3,0,8.5,0,12.8,0c3.1,0,3.1,0,3.2-3.5c0-0.2,0-0.3,0-0.5c0-5.3,0-10.7,0-16
			c0-1.3,0-2.7,0-4s0-2.7,0-4C241,126.3,241,124.7,241,123z"/>
		<path fill="#FB8C80" d="M355,286c0-3.8,0-7.7,0-11.5c0-4.5,0-4.5,4.3-4.5c13.8,0,27.6,0,41.4,0c2.3,0,2.1,0.1,2.4,2.4
			c0.2,2.4-1.1,5,1,7.1c-1.2,1.9-0.9,4-1.1,6c-0.1,0.7-1.1,0.4-1.8,0.4c-8.3,0-16.6,0-25,0c-1.2,0-2.3,0.1-3.5,0
			c-1.3-0.1-1.7,0.3-1.7,1.6c0.1,3.7,0.1,7.3,0,11c0,2.8-0.6,3.4-3.5,3.4c-3.2,0-6.3-0.2-9.5,0.1c-2,0.1-2.1-0.7-2.1-2.3
			c0.1-3.5,0-7,0-10.5c0-0.7,0-1.4-1-1.3C355,287.3,355,286.7,355,286z"/>
		<path fill="#353434" d="M241,172c10.7,0,21.3,0,32,0c0,5.3,0,10.7,0,16c-4.8,0-9.6,0-14.4,0c-1.3,0-1.7,0.4-1.7,1.7
			c0.1,5.1,0,10.2,0,15.4c-5,0-10,0-15,0c-1.7-0.2-1-1.5-1-2.3C241,192.5,241,182.2,241,172z"/>
		<path fill="#F4A88A" d="M257,205c0-5.1,0-10.2,0-15.4c0-1.3,0.4-1.7,1.7-1.7c4.8,0.1,9.6,0,14.4,0c0.5,1.1,1.1,2.2,1.1,3.6
			c-0.1,20.2-0.1,40.4-0.1,60.7c0,0.7,0.4,1.8-1,1.8c-5.3,0-10.7,0-16,0c0.1-0.9-0.4-2.1,1.3-2c3.3,0.1,6.7,0,10,0
			c2.7,0,2.7,0,2.7-2.6c0-16.2,0-32.3,0-48.5c0-3.6,0.5-7.2-0.4-10.8c-3.7,0-7.3-0.1-11-0.1c-0.2,0-0.3,0-0.5,0
			c-0.8-0.1-1.2,0.4-1.1,1.2c0,0.8-0.3,2,0.2,2.4c2,1.8-0.2,3.2-0.1,4.8c0.1,1.7,1.5,3.2,0.9,5.1c-0.2,0.6-1.1,0.8-1,1.6
			C257.7,205,257.3,205,257,205z"/>
		<path fill="#F4A88A" d="M354,205c0.1,0.6-0.3,1-0.8,1c-1.8,0-3.6,0-5.5,0c-8.8,0-7.7-0.8-7.8,8c0,0.7,0,1.3,0,2
			c0,19.7,0,39.4,0,59.1c0,1.2,0.1,2.3,0,3.5c-0.1,1,0.5,1.2,1.3,1.5c1.1,0.4,1.2,1.4-0.3,1.9c-1.5,0.6-1.8,1.3-0.1,2
			c-0.3,0.7-0.7,1.3-1,2c-0.7,0-1.3,0-2,0c0-0.7,0-1.3,0-2c1.4-1.3,1.4-2.7,0-4c0-24.7,0-49.3,0-74c0.7,0,1-0.3,1-1c0.3,0,0.7,0,1,0
			c3,0,6,0,9,0c0.7,0,1.3,0,2,0C352,205,353,205,354,205z"/>
		<path fill="#F9F9F6" d="M257,254c5.3,0,10.7,0,16,0c0,0.7,0,1.3,0,2c-0.3,0.1-0.8,0.2-0.8,0.3c-0.1,0.6,0.3,0.7,0.8,0.7
			c0,1.5-0.2,3,0,4.4c0.2,1.4-0.5,2.4-1,3.6c-3,0.1-3,0.1-3,2.3c0,1.3,0,2.7,0,4c0,0.5-0.4,0.8-1,0.8c-0.6,0-0.9-0.3-1-0.8
			c-0.1-2.6,0.3-5.1-1-7.6c-0.3-0.7-0.1-1.5,1.1-1.7c0.9-0.1,1.8-0.9,1.8-2c0.1-1.2,0.1-2.3,0-3.5c0-0.2-0.8-0.5-1.2-0.5
			c-2-0.1-4-0.1-6,0c-1.8,0.1-2.7,0.9-2.7,2.6c-0.1,1.5-0.6,3.5,0.1,4.4c2,2.3-0.2,4.2-0.2,6.2c0,1.3-1.2,0.6-1.9,0.8
			C257,264.7,257,259.3,257,254z"/>
		<path fill="#B66054" d="M306,91c-27,0-54,0-81,0c0-1.4,1.1-1,1.8-1c4.5,0,9,0,13.5,0c19.9,0,39.9,0,59.8,0c1,0,2,0.6,3-0.7
			c1.7-2.3,1.9-2.2,1.9-4.1c0-2.5-0.1-5,0-7.5c0.1-1.3-0.6-1.4-1.7-1.7c-3.8-1.2-7.7-0.8-11.6-0.9c-0.7,0-1.8,0.4-1.8-1
			c4.8,0,9.6,0,14.4,0c1.3,0,1.7,0.4,1.7,1.7C306,80.8,306,85.9,306,91z"/>
		<path fill="#0E1B2A" d="M351,200c0-15.5,0-30.9-0.1-46.4c0-2,0.8-4.1-0.8-6.2c-0.8-1,1.2-2,1.3-3.3c0-0.1,0.6-0.2,0.9-0.1
			c0.3,0.1,0.6,0.4,0.6,0.6c0.1,1.2,0,2.3,0,3.5c0,17.3,0,34.6,0,51.9C352.3,200,351.7,200,351,200z"/>
		<path fill="#080203" d="M338,206c0,24.7,0,49.3,0,74c0,1.3,0,2.7,0,4c0,0.7,0,1.3,0,2c-1.3,0-2.7,0-4,0c0-0.8,0-1.7,0-2.5
			c0-0.6-0.1-1.6,0.8-1.5c2.3,0.4,2.3-1,2.3-2.6c0-22.7,0-45.5,0-68.2c0-1.2,0-2.4-0.7-3.7c-0.5-1,0.6-2.8,1-4.3c0,0,0.3-0.1,0.3,0
			c0.1,0.3,0.3,0.6,0.3,0.8c0.1,0.3,0,0.7,0,1C338,205.3,338,205.7,338,206z"/>
		<path fill="#080203" d="M355,313c0,1.7,0,3.3,0,5c-0.7-0.1-1.8,0.5-2-0.8c-0.1-0.8,0-1.7,0-2.5c0-8.3,0-16.6,0-24.9
			c0-1.7,0.7-2,2-1.8c0,8,0,16,0,24c-0.3,0.1-0.8,0.2-0.8,0.3C354.1,312.9,354.5,313,355,313z"/>
		<path fill="#F9F9F6" d="M277,318c0.1-0.6-0.4-1.6,0.4-1.8c1.6-0.4,2.4-0.8,1-2.5c-0.9-1-0.3-1.8,1.1-1.7c0.7,0,1.4-0.1,2,0
			c0.9,0.2,2.6-0.9,2.6,1.1c0,1.6-1.5,0.6-2.3,0.9c-0.5,0.2-0.7,0.6-0.6,1.1c0.1,0.5,0.3,0.9,0.9,0.8c1.2-0.2,3.2,1,3.2-1.6
			c1.6-0.6,3-1.7,4.9-1.4c0,1.7,0,3.3,0,5C285.7,318,281.3,318,277,318z"/>
		<path fill="#0E1B2A" d="M334,286c1.3,0,2.7,0,4,0c0.1,0.7-0.5,1.9,0.8,2c2.5,0.1,5,0.1,7.4,0c1.3-0.1,0.6-1.3,0.8-2
			c0.7,0,1.3,0,2,0c-0.1,4-0.1,4-3.7,4c-3.3,0-6.6,0-9.8,0c-0.8,0-2.1,0.5-2.2-0.3C333.1,288.5,331.9,286.8,334,286z"/>
		<path fill="#F9F9F6" d="M272,299c-0.6,0.1-1-0.3-1-0.8c0-6.3,0-12.6,0-18.9c0-1.7,1.1-1.2,2-1.3c0,2,0,4,0,6c0,2.7-0.2,5.3,0.1,8
			C273.3,294.4,271.2,296.5,272,299z"/>
		<path fill="#0E1B2A" d="M351,202c-4.7,0-9.3,0-14,0c-0.9,0-1.1-0.6-1-1.3c0.1-0.5,0.4-0.8,1-0.8c4.7,0,9.3,0,14,0
			C351,200.7,351,201.3,351,202z"/>
		<path fill="#080203" d="M351,205c-0.7,0-1.3,0-2,0c0.1-0.9-0.6-1-1.2-1c-2.6,0-5.2,0-7.8,0c-0.1-1,0.6-1,1.3-1c2.8,0,5.6,0,8.4,0
			c0.7,0,1.4,0,1.3-1c1.6,0.3,2.3-0.4,2-2c0.7,0,1.3,0,2,0c0,1.3,0,2.7,0,4c-0.9,0-1.9,0-2.8,0C351.5,204,350.9,204.1,351,205z"/>
		<path fill="#080203" d="M277,58c-0.8,0-1.6-0.1-2.4,0c-1.8,0.3-1.7-0.9-1.6-2c0.9,0.1,1-0.6,1-1.3c0-3.9,0-7.8,0-11.7
			c1.4-0.3,1.6,0.6,2.3,1.6c1.3,1.8-0.2,1.2-0.9,1.5c-0.5,0.3-0.4,0.8-0.4,1.3c0,1.5,0,3,0,4.5C275,55.4,275,55.4,277,58z"/>
		<path fill="#353434" d="M274,43c0,3.9,0,7.8,0,11.7c0,0.7-0.1,1.3-1,1.3c0-4.7,0-9.3,0-14C273.7,42,274,42.3,274,43z"/>
		<path fill="#E84D3C" d="M225,40c-0.6,0.1-1-0.3-1-0.8c0-3.5,0-7,0-10.4c0-0.5,0.4-0.9,1-0.8C225,32,225,36,225,40z"/>
		<path fill="#494847" d="M340,204c2.6,0,5.2,0,7.8,0c0.7,0,1.3,0.1,1.2,1c-3,0-6,0-9,0C340,204.7,340,204.3,340,204z"/>
		<path fill="#080203" d="M290,312c0-3,0-6,0-9c0.3,0.1,0.8,0.2,0.8,0.3c0,2.8,0,5.5,0,8.3C290.8,311.8,290.3,311.9,290,312z"/>
		<path fill="#F9F9F6" d="M284,302c0,0.7,0,1.3,0,2c0,1.2-0.9,1.3-1.6,0.9c-1-0.6-1.7-1.5-1.4-2.8C282,302,283,302,284,302z"/>
		<path fill="#494847" d="M355,150c0,0.7,0,1.3,0,2c-0.9,0.1-1.1-0.6-1-1.2C354.1,150.3,354.4,149.9,355,150z"/>
		<path fill="#1A0A51" d="M293,318c0,0.5-0.1,0.9-0.7,0.8c-0.2,0-0.2-0.5-0.3-0.8C292.3,318,292.7,318,293,318z"/>
		<path fill="#B66054" d="M338,206c0-0.3,0-0.7,0-1c0.3,0,0.7,0,1,0C339,205.7,338.7,206,338,206z"/>
		<path fill="#FDFDFD" d="M273,257c-0.5,0-0.9-0.1-0.8-0.7c0-0.2,0.5-0.2,0.8-0.3C273,256.3,273,256.7,273,257z"/>
		<path fill="#010001" d="M29,156c-0.1,1,1.5,1.4,1,2.6c-1.8,3.9-0.7,8-1,12c-0.1,1-0.3,1.4-1.4,1.4c-4.1,0-8.3-0.1-12.4,0
			c-1.6,0-2.3-0.2-2.3-2.1c0.2-4.6,0.1-9.3,0.1-13.9C18.3,156,23.7,156,29,156z"/>
		<path fill="#B66054" d="M78,124c0,4.6-0.1,9.3,0.1,13.9c0.1,2-0.7,2.1-2.3,2.1c-14.9-0.1-29.9,0-44.8,0c0.1-1-0.6-0.9-1.3-1
			c-0.2,0-0.5-0.3-0.7-0.5c0.1-0.1,0.2-0.3,0.4-0.3c1-0.1,2-0.1,2.9-0.1c13.4,0,26.8,0,40.2,0c0.8,0,1.7-0.1,2.5,0
			c1.4,0.2,2.1-0.2,2-1.8c-0.1-3.6,0-7.3,0-10.9C77,124.6,77,123.9,78,124z"/>
		<path fill="#B66054" d="M225,92c0,4.2,0,8.3,0,12.5c0,2.5,0,2.5-2.7,2.5c-26.4,0-52.8,0-79.3,0c-0.1-1,0.6-1,1.3-1c4,0,8,0,12,0
			c21.1,0,42.2,0,63.4-0.1c1,0,2.9,1.5,3.5-1.3c0.3-1.3,1.2-2.1-0.1-3.2c-0.2-0.1,0.1-0.7,0-1c-0.5-1.4,1.1-2.5,0.9-3.6
			c-0.3-1.2-1-2.2-0.9-3.6C223,91.6,224.1,92.1,225,92z"/>
		<path fill="#B66054" d="M143,120c-0.1,3-0.1,3-2.8,3c-20.4,0-40.8,0-61.2,0c0.2-1.7,1.5-1,2.3-1c9.6,0,19.2,0,28.8,0
			c9.3,0,18.6,0,27.8,0c1.7,0,3.2,0.1,3.6-2C141.6,119.9,142.5,120,143,120z"/>
		<path fill="#080203" d="M77,58c0-9.9,0-19.8,0-29.7c0-0.8-0.7-2.1,1-2.3c0,10,0,20,0,30C77.8,56.8,78.5,57.9,77,58z"/>
		<path fill="#B66054" d="M78,56c0-10,0-20,0-30c0.3,0,0.7,0,1,0c0,9.2,0,18.5,0,27.7C79,54.5,79.7,55.8,78,56z"/>
		<path fill="#494847" d="M97,10c0.2-1.7,1.5-1,2.3-1c8.6-0.1,17.2,0,25.7,0c-0.2,1.7-1.5,1-2.3,1C114.2,10,105.6,10,97,10z"/>
		<path fill="#0E1B2A" d="M29,142c1.4,1.9,1.4,4.1,0,6C29,146,29,144,29,142z"/>
		<path fill="#F9F9F6" d="M269,367c0-13.4,0-26.8,0-40.2c0-2.7,0-2.7,3-2.8c0.3,0,0.7,0,1,0c0,14,0,28,0,42c0,0.3,0,0.7,0,1
			c-0.7,0-1.3,0-2,0S269.7,367,269,367z"/>
		<path fill="#FAB5AF" d="M144,498c-5.3,0-10.5,0-15.8,0c-1.7,0-1.2-1.1-1.2-2c1.3,0,2.7,0,4,0c0.7,0,1.3,0,2,0c2.7,0,5.3,0,8,0
			c4.6,0,9.3,0,13.9,0c0.6,0,1.7,0.4,1.8-0.3c0.6-2.6,3.8-4.7,1.6-7.7c-0.6-0.9,1.4-1.3,0-2.2c-0.9-0.5-0.4-1.9-0.3-2.8
			c0.2-1.8,1.6-2.9,3.4-2.9c3.3,0,6.6,0,9.9,0c2.2,0,3.3-1,3.6-3.2c0.1-0.7-0.1-1.3,0-2c0.3-2.5-0.6-4.7-1-7c-0.3-1.7,0.6-2,2-1.8
			c0,4.7,0,9.3,0,14c-0.6,1-0.7,3-2.5,1c-3.2,0.3-6.5-0.8-9.7,0.6c-0.1,0.1-0.2,0.2-0.4,0.3c-0.8-1.1-2.1-1.4-3-0.9
			c-1.2,0.8-0.5,2.4-0.5,3.7c-0.1,3,0,6,0,8.9c0,4-0.2,4.2-4.1,4.3C152,498,148,498,144,498z"/>
		<path fill="#1A0A51" d="M273,366c0-14,0-28,0-42c0-1,0-2,0-3c1.5-0.1,0.8-1.2,1-2c0.7,0,1.3,0,2,0c4.7,0,9.3,0,14,0
			c0,1.4-1.1,1-1.8,1c-3.8,0-7.6,0.1-11.4,0c-1.7-0.1-1.8,0.6-1.8,2c0,12.9,0,25.8,0,38.8c0,1.5,0,3,0,4.5c0,0.5-0.4,0.9-1,0.8
			C273.7,366,273.3,366,273,366z"/>
		<path fill="#989898" d="M257,432c0.5,0,1.1,0.2,0.8,0.7c-0.7,0.8-1.9,0.3-2.8,0.3c-9.3,0-18.5,0.1-27.8,0c-1.7,0-2.3,0.3-2.2,2.1
			c0.2,4.6,0.1,9.3,0.1,13.9c-5.3,0-10.7,0-16,0c-0.3,0-0.7,0-1,0c0-0.3,0-0.7,0-1c1.1-0.2,2.3,0.5,3.1-0.6c0.4-0.5,1-0.5,1.3-0.3
			c2.6,2.1,5.6,0.5,8.4,0.9c1.6,0.2,1.1-1.1,1.2-2c0.9,0.1,1-0.5,1-1.2c0-0.9,0-1.9,0-2.8c0-2,0-4,0-5.9c0-1,0-1.9-1-2.6
			c-0.4-0.3-1-0.8-0.9-1c0.3-0.7,1.1-0.5,1.7-0.5c10.1,0,20.1,0,30.2,0C254.3,432,255.7,432,257,432z"/>
		<path fill="#FBF7EE" d="M255,376c0.7,0,1.3,0,2,0c0,0.3,0,0.7,0,1c0,5,0,10,0,15c0,2.7,0,5.3,0,8c-5.3,0-10.7,0-16,0c0-2,0-4,0-6
			c0.2,0,0.4-0.1,0.5,0c1.2,1-0.2,2.9,0.8,3.6c1.3,1,3.2,0.3,4.8,0.4c1.6,0,3.2,0,4.8,0c1.6,0,1.1-1.2,1.2-2c0.9-0.1,2.1,0.4,2-1.3
			c-0.1-2.8,0-5.6,0-8.4C255,382.9,255,379.5,255,376z"/>
		<path fill="#FAB5AF" d="M208,448c0,0.3,0,0.7,0,1c0,0.7,0,1.3,0,2s0,1.3,0,2c0,0.3,0,0.7,0,1c0,0.7,0,1.3,0,2c0,2.7,0,5.3,0,8
			c0,0.3,0,0.7,0,1c-10.3,0-20.7,0-31,0c0.2-1.7,1.5-1,2.3-1c8.1-0.1,16.2,0,24.3,0c1.9,0,3.1-1,3.5-2.8c0.1-0.8,0-1.6,0-2.5
			c0-3.1,0-6.3,0-9.4C207,448.6,207,447.9,208,448z"/>
		<path fill="#353434" d="M177,465c10.3,0,20.7,0,31,0c-0.2,1.7-1.5,1-2.3,1c-8.7,0.1-17.3,0-26,0c-2.8,0-3.8,0.8-2.6,2.9
			c1.2,2.2-0.2,3.5-0.2,5.3c0,1.9,0.7,3.9-0.4,5.8c0,0.1-0.3,0-0.5,0c0-4.7,0-9.3,0-14C176,465.3,176.3,465,177,465z"/>
		<path fill="#989898" d="M257,400c0-2.7,0-5.3,0-8c0.6-0.1,1,0.3,1,0.8c0,12.1,0,24.3,0,36.4c0,0.5-0.4,0.9-1,0.8c0-2,0-4,0-6
			C257,416,257,408,257,400z"/>
		<path fill="#1A0A51" d="M208,453c0-0.7,0-1.3,0-2c1.5-0.1,0.8-1.2,1-2c5.3,0,10.7,0,16,0c0.5,0,1.2,0.3,0.8,0.6
			c-0.9,0.8-2.2,0.3-3.3,0.3c-4.1,0.2-8.2-0.4-12.3,0.4c-0.1,4-0.1,7.9-0.2,11.9c0,0.7,0.4,1.8-1,1.8c0-2.3,0-4.5,0-6.8
			c0-0.7-0.1-1.3-1-1.2c0-0.7,0-1.3,0-2c0.3-0.1,0.8-0.2,0.8-0.3C208.9,453.1,208.5,453,208,453z"/>
		<path fill="#FAB5AF" d="M257,424c0,2,0,4,0,6c0,0.7,0,1.3,0,2c-1.3,0-2.7,0-4,0c0.1-0.7-0.4-2,0.7-1.9c2,0.1,2.3-0.6,2.4-2.4
			C256.1,426.5,254.9,424.7,257,424z"/>
		<path fill="#989898" d="M290,319c-4.7,0-9.3,0-14,0c0-0.3,0-0.7,0-1c0.3,0,0.7,0,1,0c4.3,0,8.7,0,13,0
			C290,318.3,290,318.7,290,319z"/>
		<path fill="#494847" d="M208,456c0.9-0.1,1,0.5,1,1.2c0,2.3,0,4.5,0,6.8c-0.3,0-0.7,0-1,0C208,461.3,208,458.7,208,456z"/>
		<path fill="#989898" d="M257,377c0-0.3,0-0.7,0-1c0-0.7,0-1.3,0-2C258.4,375,258.4,376,257,377z"/>
		<path fill="#989898" d="M269,367c0.7,0,1.3,0,2,0c0.1,0.9-0.6,1.1-1.2,1C269.3,367.9,268.9,367.6,269,367z"/>
		<path fill="#989898" d="M273,366c0.3,0,0.7,0,1,0c0,0.7-0.3,1-1,1C273,366.7,273,366.3,273,366z"/>
		<path fill="#353434" d="M485,188c0,10,0,20,0,30c0,3,0,3-3.2,3c-3.5,0-7,0-10.5,0c-2.2,0-2.3,0-2.3,2.5c0,3.8-0.1,7.7,0,11.5
			c0,1.4-0.1,2.1-1.8,2c-4.5-0.1-9-0.1-13.5,0c-1.8,0-1.8-0.8-1.8-2.1c0-13.5,0-27,0-40.4c0-2.1,0.5-4.3-0.3-6.3
			c-2-0.1-4-0.1-5.9-0.2c-3.1-0.1-6.3-0.1-9.4-0.2c-0.7-3.1-0.3-6.2-0.3-9.4c-0.1-7.5,0-15,0-22.5c10.3,0,20.6,0,30.9,0
			c1.8,0,2.3,0.4,2.2,2.2c-0.2,4.1,0,8.3-0.1,12.4c0,1,0.3,1.5,1.4,1.4c4.1,0,8.3,0.1,12.4-0.1c1.6,0,2.4,0.1,2.3,2.1
			C484.9,178.7,485,183.4,485,188z"/>
		<path fill="#0F1B2B" d="M416,140c-1,0-2,0-3,0C414,138.6,415,138.6,416,140z"/>
		<path fill="#0F1B2B" d="M363,140c-1,0-2,0-3,0C361,138.6,362,138.6,363,140z"/>
		<path fill="#054A65" d="M61.3,514c-4.8,0-9.6-0.1-14.5,0c-1.6,0-1.9-0.6-1.9-2c0.1-4-0.1-8,0.1-12c0.1-2-0.7-2.1-2.3-2.1
			c-4,0.1-8,0-12,0.1c-1.7,0.1-1.9-0.6-1.8-2c0.1-3.7,0-7.3,0-11c0-3,0-3-3.2-3c-3.7,0-7.3,0-11,0c-1.1,0-1.9,0-1.8-1.5
			c0.1-4.7,0.1-9.3,0-14c0-1.5,0.7-1.5,1.8-1.5c9.3,0,18.6,0,27.9,0c1.4,0,3.3,1.3,3.2,2.6c-0.1,2.8,0.7,5.6-0.4,8.3
			c-0.3,0.8-0.9,1.4-0.1,2.1c1,0.8,0.1,2,0.7,2.7c0.9,0.9,2.2,0.3,3.3,0.4c3.2,0.1,6.3,0,9.5,0c2.2,0,3,0.8,3,2.8
			c0.1,3.5,0,7,0,10.5c0,3.3,0.4,3.6,3.7,3.7c3.5,0,7,0.1,10.5,0c1.6-0.1,1.9,0.6,1.8,2c-0.1,4-0.2,8,0,12c0.1,2-0.7,2.1-2.3,2.1
			C70.9,513.9,66.1,514,61.3,514z"/>
		<path fill="#FBA47D" d="M131,496c-1.3,0-2.7,0-4,0c0-5,0-10,0-15c0-1,0-2,0-3c0.6,0,1.3,0.1,1.9,0c1.7-0.3,2.4,0.4,2.1,2.1
			c-0.1,0.6,0,1.3,0,1.9C131,486.7,131,491.3,131,496z"/>
		<path fill="#0F1B2B" d="M95,466c-0.7-0.1-1.8,0.5-2-0.8c-0.1-1.1,0-2.3,0-3.5c0-8.6,0-17.2,0-25.8c0-1.4-0.2-2.1-1.8-2
			c-3,0.1-5.9,0-8.9,0c-0.7,0-1.4,0-1.3-1c3.6,0,7.3,0.1,10.9-0.1c1.3-0.1,2,0.9,3.1,1.1c0,1,0,2,0,3c-0.3,0.1-0.8,0.2-0.8,0.3
			c-0.1,0.6,0.3,0.7,0.8,0.7c0,0.7,0,1.3,0,2c-1.4,0-1,1-1,1.8c0,6.7,0,13.5,0,20.2c0,0.7,0,1.3,0,2c0,0.7,0.3,1,1,1
			C95,465.3,95,465.7,95,466z"/>
		<path fill="#FAB5AF" d="M127,478c0,1,0,2,0,3c-5.3,0-10.7,0-16,0c0-5.3,0-10.7,0-16c0.3,0,0.7,0,1,0c0,1-0.3,2.2,0.1,3
			c0.8,1.7,1,2.8,0.1,4.8c-0.8,1.9-0.8,4.9,0.1,6.7c0.8,1.5,3.7,0.3,5.6,0.5c1.3,0.1,2.7,0,4,0c1.7,0.1,3.2,0.2,3.6-2
			C125.6,477.9,126.5,478,127,478z"/>
		<path fill="#353434" d="M111,465c0,5.3,0,10.7,0,16c-1.4,0-1-1-1-1.8c0-1.8-0.3-3.7,0.1-5.4c0.4-1.6-1.5-3-0.2-4.7
			c0.3-0.4-0.5-2-1.2-2.8c-0.4-0.4-1.5-0.3-2.3-0.3c-3.8,0-7.6,0-11.4,0c0-0.3,0-0.7,0-1C100.3,465,105.7,465,111,465z"/>
		<path fill="#0F1B2B" d="M78,432c-1.7-0.2-1-1.5-1-2.3c0-9.9,0-19.8,0-29.7c0.3,0,0.7,0,1,0c0,10.3,0,20.7,0,31
			C78,431.3,78,431.7,78,432z"/>
		<path fill="#B66054" d="M78,432c0-0.3,0-0.7,0-1c1.1,0.5,2.2,1.1,3.6,1.1c4.5-0.2,9-0.1,13.4-0.1c0,0.7,0,1.3,0,2
			c-1.1-0.2-1.8-1.1-3.1-1.1c-3.6,0.2-7.3,0.1-10.9,0.1C80,432.6,78.5,433.9,78,432z"/>
		<path fill="#2D0976" d="M111,484c0,0.5,0.1,1,0,1.5c-0.1,0.2-0.5,0.4-0.7,0.5c-0.5,0.1-1,0-1.2-0.5c-0.1-0.4-0.1-1,0-1.5
			c0.1-0.7-0.5-1.8,0.8-2C111.5,481.8,110.9,483.2,111,484z"/>
		<path fill="#1A0A51" d="M78,400c-0.3,0-0.7,0-1,0c0.5-2.4,2-4.8,0-7.2c-0.2-0.2,0-0.6,0-1c0-2.5,0.1-5,0.1-7.4
			c2.4-0.8,4.9-0.3,7.3-0.4c2.3-0.1,4.7-0.1,7,0c1.4,0.1,1.6-0.6,1.6-1.8c0-4.2,0-8.3,0-12.5c0-0.7-0.4-1.8,1-1.8
			c0,9.9,0,19.8,0,29.7c0,0.8,0.7,2.1-1,2.3c-4,0-8,0-12,0c-0.1-0.3-0.2-0.8-0.3-0.8c-0.6-0.1-0.7,0.3-0.7,0.8
			C79.3,400,78.7,400,78,400z"/>
		<path fill="#989898" d="M93,400c1.7-0.2,1-1.5,1-2.3c0-9.9,0-19.8,0-29.7c0-0.7,0.3-1,1-1c3.9,0,7.9,0.1,11.8,0
			c1.4,0,2.9,0.5,4.2-0.5c-1.4-0.9-0.9-2.3-1-3.5c0-0.3,0-0.7,0-1c0-3.3,0-6.5,0-9.8c0-0.7,0.1-1.3,1-1.2c0.3,0,0.7,0,1,0
			c0,0.3,0,0.7,0,1c0,5.3,0,10.7,0,16c-0.3,0.1-0.7,0.1-0.8,0.3c-1.1,1.8-1.2,1.9-2.1,0.4c-0.4-0.7-1.2-1-1.5-0.7
			c-1.2,1.4-1.9,0.7-3.2,0.1c-0.9-0.4-3.2-1.2-3.6,1.5c-0.1,0.7-1.2,0.2-1.8,0.3c-0.1-0.9,0.4-2-1.3-2c-1.7-0.1-1.9,0.7-1.7,2
			c0,2,0,4,0,6c-0.6-0.1-1,0.3-1,0.8c0,4.6,0,9.3,0,13.9c0,0.5,0.1,1.3,0.5,1.2c1.6-0.1,1.4,0.8,1.5,1.8c0.4,2.7-0.9,4.9-2,7.2
			c-0.3,0.7-0.6,1.1-1.3,1C92.5,401.8,93.1,400.7,93,400z"/>
		<path fill="#0F1B2B" d="M29,304c-5.3,0-10.7,0-16,0c0-0.7,0.1-1.3,0-2c-0.1-1.4,0.1-2.1,1.8-2c4.3,0.1,8.6,0.1,12.9,0
			c1.7,0,1.2,1.1,1.3,2C29,302.7,29,303.3,29,304z"/>
		<path fill="#1A0A51" d="M111,321c0,1,0,2,0,3c-1.4,1.3-1.4,2.7,0,4c0,2,0,4,0,6c-0.9-0.1-2,0.4-2-1.3c0.1-3.6-0.1-7.2,0.1-10.9
			c0-1.5-0.4-2-1.9-1.9c-3.6,0.1-7.2,0-10.9,0c-0.7,0-1.3,0-1.3-1c5,0,10,0,15,0C110.2,319.8,109.5,320.9,111,321z"/>
		<path fill="#1A0A51" d="M93,286c1.7,0.2,1,1.5,1,2.3c0,9.9,0,19.8,0,29.7c0,0.5-0.2,1.2-0.7,0.7c-0.8-0.7-0.3-1.9-0.3-2.8
			C93,306,93,296,93,286z"/>
		<path fill="#1A0A51" d="M110,362c0,0.3,0,0.7,0,1c0.1,1.3-0.4,2.6,1,3.5c-1.3,1-2.8,0.4-4.2,0.5c-3.9,0.1-7.9,0-11.8,0
			c0-1.4,1.1-1,1.8-1c3.7,0,7.3,0,11,0c0.5,0,1,0,1.2-0.6c0-0.1-0.4-0.4-0.7-0.7c-0.6-0.7-1.9-1.3-1.1-2.4
			C107.8,361.5,109.1,362.2,110,362z"/>
		<path fill="#1A0A51" d="M112,335c4.3,0,8.5,0.1,12.8,0c1.6,0,2.6,0.1,2.2,2.1c-0.2,1,0,2,0,3c-1.8-0.7-1.2-3.4-2.6-3.9
			c-1.8-0.6-3.9-0.1-5.8-0.1s-3.9,0-5.9,0C112.3,336,111.9,335.6,112,335z"/>
		<path fill="#353434" d="M112,351c-0.3,0-0.7,0-1,0c-0.1-0.9,0.6-1,1.3-1c3.4,0,6.9,0,10.3,0c2.7,0,2.7,0,4.5-2c0,0.7,0,1.3,0,2
			c0,0.3,0,0.7,0,1C122,351,117,351,112,351z"/>
		<path fill="#080203" d="M78,238c0,15,0,30,0,45c-1.7-0.2-1-1.5-1-2.3c0-11.9,0-23.8,0-35.8c0-1.2,0-2.3,0-3.5c0-2.4,0-2.5-2.3-2.5
			c-3.5,0-7-0.1-10.4,0c-1.7,0-1.2-1.1-1.3-2c1.6,0.1,3.3-0.4,4.8,0.3c1.6,0.8,2.8-0.5,4.2-0.5c1.8,0,3.2,1.3,5,1.1
			C77.3,238,77.7,238,78,238z"/>
		<path fill="#080203" d="M78,159c0,4,0,8,0,12c-0.6,0.1-1-0.3-1-0.8c0-3.5,0-7,0-10.4C77,159.3,77.4,158.9,78,159z"/>
		<path fill="#080203" d="M78,284c0,0.3,0,0.7,0,1c-0.5,0-0.9-0.1-0.8-0.7C77.2,284.2,77.7,284.1,78,284z"/>
		<path fill="#494847" d="M534,304c-0.7,0-1-0.3-1-1C533.7,303,534,303.3,534,304z"/>
		<path fill="#353434" d="M432.6,468.9c-0.2-0.1-0.4-0.2-0.6-0.4c0.1-0.1,0.2-0.3,0.3-0.3c0.2,0.1,0.4,0.2,0.7,0.3
			C432.9,468.6,432.8,468.7,432.6,468.9z"/>
		<path fill="#989898" d="M403,335c0.3,0,0.7,0,1,0c0,0.7-0.3,1-1,1C403,335.7,403,335.3,403,335z"/>
		<path fill="#353434" d="M403,202c0,0.7,0,1.3,0,2c-10.7,0-21.3,0-32,0c0-8.8,0-17.7,0-26.5c0-1.8-0.8-4.1,0.4-5.2
			c0.9-0.8,3.1-0.3,4.8-0.3c9.3,0,18.7,0,28,0c5.1,0,10.3,0.1,15.4,0.1c0.8,5.3,0.1,10.6,0.3,15.8c-0.3,0-0.7,0-1,0
			c-0.7,0-1.3,0-2,0c-0.3,0-0.7,0-1,0c-1,0-2,0-3,0c-2.3,0-4.7,0-7,0c-0.8,0.2-1.9-0.5-2,1c-1.9,0.5-0.6,2-1,3
			C403,195.3,403,198.7,403,202z"/>
		<path fill="#F4A88A" d="M343,216c1.3,0,2.7,0,4,0c0,20.1,0,40.3,0,60.4c0,1.7-0.6,3.6,2,4.1c0.1,0,0,0.9,0,1.4
			c-1.8-0.1-3.9,0.7-4.6-2c-2.5,0.1-1.4-1.8-1.4-2.8C343,256.8,343,236.4,343,216z"/>
		<path fill="#FBA47D" d="M343,216c0,20.4,0,40.8,0,61.2c0,1-1.1,2.9,1.4,2.8c0.6,2.7,2.8,1.9,4.6,2c-0.1,0.9,0.5,2-1.2,2
			c-2.3,0-4.5,0-6.8,0c-1.7-0.7-1.4-1.4,0.1-2c1.4-0.5,1.3-1.5,0.3-1.9c-0.9-0.3-1.4-0.5-1.3-1.5c0.1-1.2,0-2.3,0-3.5
			c0-19.7,0-39.4,0-59.1C341,216,342,216,343,216z"/>
		<path fill="#F4A88A" d="M420,188c-0.2-5.3,0.4-10.6-0.3-15.8c-5.1-0.1-10.3-0.1-15.4-0.1c-9.3,0-18.7,0-28,0
			c-1.6,0-3.8-0.5-4.8,0.3c-1.3,1.1-0.4,3.4-0.4,5.2c-0.1,8.8,0,17.7,0,26.5c-1.5,0.2-2.6-0.5-3-1.9c-0.3-1.1-0.3-2.3,1.6-2.3
			c0.5,0,0.4-0.8,0.4-1.3c0-4.3,0.9-8.9-0.3-12.9c-1-3.6,0.4-7.4-1.7-10.7c-0.4-0.6-0.4-2.7,0.3-2.7c1.9,0.1,1.3-2.4,3.5-2.4
			c15.8,0.2,31.5,0.2,47.3,0c2.3,0,1.5,2.2,2.8,2.6c-0.4,3.2,0.9,6.6-0.7,9.7c-0.3,0.5-0.3,0.9-0.2,1.4C421.4,186,421.4,186,420,188
			z"/>
		<path fill="#FBA47D" d="M359,171.6c0,9,0,17.9,0,26.9c0,1.5-0.7,1.6-1.8,1.5c-0.7,0-1.3-0.1-1.2-1.1c0-1,0-2,0-3
			c0-14.6,0-29.3,0-43.9c0-1.5-0.6-3.2,0.8-4.7c0.5-0.5,0.7-2.5-0.6-3.6c-0.6-0.5-0.6-1.3,0.1-1.6c0.5-0.3,1.3-0.2,1.9-0.1
			c0.5,0.1,0.7,0.6,0.7,1.1c0,1,0,2,0,3C359,154.6,359,163.1,359,171.6z"/>
		<path fill="#FBA47D" d="M349,282c0-0.5,0.1-1.4,0-1.4c-2.6-0.5-2-2.5-2-4.1c0-20.1,0-40.3,0-60.4c0.7,0.1,1.8-0.5,2,0.8
			c0.1,1.3,0,2.7,0,4c0,16.9,0,33.9,0,50.8c0,1.7-0.6,3.6,1,5.1c-0.5,2.9,0.7,3.8,3.4,3.4c0.4-0.1,0.7,0.7,0.5,1.2
			c-0.1,0.3-0.3,0.7-0.5,0.7C352,282,350.5,282,349,282z"/>
		<path fill="#F4A88A" d="M417,188c0.7,0,1.3,0,2,0c0,0.7,0.3,1,1,1c0.5,0,1.1,0.1,0.8,0.7c-0.4,0.7-1.2,0.3-1.8,0.3
			c-3.8,0-7.6,0-11.4,0c-2.5,0-2.7,0-2.5,2.7c0.2,2.7-1,5.5,0.9,8.1c0.3,0.4,0,1.3-1,1.2c-0.7,0-1.3,0-2,0c0-3.3,0-6.7,0-10
			c1.9-0.5,0.6-2,1-3c0.1-1.5,1.2-0.8,2-1c2.1,1.4,4.9,1.4,7,0c1,0,2,0,3,0c0.1,0.3,0.2,0.8,0.3,0.8C416.9,188.9,417,188.5,417,188z
			"/>
		<path fill="#F4A88A" d="M402,205c-0.1,0.3-0.2,0.8-0.3,0.8c-10.4,0.1-20.7,0.1-31.1,0.2c-0.1,0-0.2-0.2-0.4-0.3
			c-0.6-0.2-0.6-0.7,0-0.4c0.2,0.1,0.5-0.2,0.8-0.3C381.3,205,391.7,205,402,205z"/>
		<path fill="#B66054" d="M402,205c-10.3,0-20.7,0-31,0c0-0.3,0-0.7,0-1c10.7,0,21.3,0,32,0C403,204.7,402.7,205,402,205z"/>
		<path fill="#080203" d="M347,286c-0.1,0.7,0.5,1.9-0.8,2c-2.5,0.1-5,0.1-7.4,0c-1.3-0.1-0.6-1.3-0.8-2c0.7,0,1.3,0,2,0
			C342.3,286,344.7,286,347,286z"/>
		<path fill="#494847" d="M351,205c-0.1-0.9,0.5-1,1.2-1c0.9,0,1.9,0,2.8,0c0,0.7-0.3,1-1,1C353,205,352,205,351,205z"/>
		<path fill="#B66054" d="M420,189c-0.7,0-1-0.3-1-1c0.3,0,0.7,0,1,0C420,188.3,420,188.7,420,189z"/>
		<path fill="#0F1B2B" d="M355,313c-0.5,0-0.9-0.1-0.8-0.7c0-0.2,0.5-0.2,0.8-0.3C355,312.3,355,312.7,355,313z"/>
		<path fill="#FBA57E" d="M99,370c0.6-0.1,1.7,0.3,1.8-0.3c0.3-2.7,2.7-2,3.6-1.5c1.3,0.6,2,1.2,3.2-0.1c0.3-0.3,1,0,1.5,0.7
			c1,1.5,1,1.4,2.1-0.4c0.1-0.2,0.5-0.2,0.8-0.3c0.6-0.1,0.9,0.3,1,0.8c0.1,0.7,0.1,1.3,1,1.3c0.9,0,1-0.5,1-1.2c0-2.6,0-5.2,0-7.8
			c1.2,0.3,2.5,1.4,1.9,2.2c-1.3,1.5,0.6,2.5,0.2,3.7c-0.3,0.8,0.5,1.1,1.2,1c0.5-0.1,0.8-0.4,0.8-1c-0.3-4.7,1.1-9.7-2-14
			c-0.2-0.2,0-0.6,0-1c12.3,0,24.6,0,36.9,0c1.7,0,3.2-0.2,3.6,2c0,0.1,0.9,0,1.4,0c0,2.7,0.1,5.3,0,8c0,1.6,0.7,3.7-0.4,4.7
			c-0.9,0.8-2.8,0.3-4.3,0.3c-8,0-16,0-24,0c-2.5,0-3.2,0.7-3.2,3.1c0,4.2,0,8.3,0,12.5c0,1.1,0.4,1.4,1.4,1.4c9.5,0,19,0,28.5,0
			c2.4,0,3.1-0.7,3.1-3.3c0-3.7,0-7.3,0-11c0-2,0.2-2,2.7-1.8c2.2,0.2,4.3,0.1,6.5,0c2.1,0,4.3-0.1,6.4-0.1c0.7-2.3,0.2-4.6,0.3-6.8
			c0-1,0-2,0-3c0-2,0-4,0-6c0.7,0,1-0.3,1-1c1.3,0,2.7,0,4,0s2.7,0,4,0c1.5,0,2.9,0,4.4,0c2.5,0,2.5,0,2.6-3c0-1,0-2,0-3
			c0-0.3,0-0.7,0-1c0-1.3,0-2.7,0-4s0-2.7,0-4c0.7,0,1-0.3,1-1c5,0,10,0,15,0c0,10-0.1,19.9,0.1,29.9c0,1.9-0.6,2.2-2.3,2.1
			c-3.5-0.1-7-0.1-10.5,0c-2.7,0-3.3,0.6-3.3,3.5c0,4.2,0,8.3,0,12.5c0,0.3,0,0.7,0,1c-1.6,0.5-2.6-1.6-4.1-1
			c-2.6,1.2-5.1,1.6-7.7,0c-1.3-0.8-2.3,0.7-3.5,1c-1.3,0.3-0.7,1.7-0.7,2.5c0,9.1,0,18.3-0.1,27.4c0,1.3,0.1,2.1,1.8,2.1
			c4.1-0.1,8.3-0.1,12.5,0c1.7,0.1,1.9-0.7,1.8-2c-0.1-0.7,0-1.3,0-2c0-2,0-4,0-6c0-1.7,0-3.3,0-5c0-0.7,0.3-1,1-1c4,0,8,0,12,0
			c2.8,0,3.8-0.9,4-3.9c0-0.5,0-1,0-1.5c0-1.3-0.1-2.7,0-4c0.2-1.4-1.1-2.1-1.1-3.6c0.1-3-0.1-3,2.8-3.1c3.5,0,7,0,10.5,0
			c3.3,0,3.7-0.5,3.8-3.6c0-0.7,0-1.3,0-2c0-3-0.1-6,0-9c0-1.9,1.1-2.6,3.1-1.7c1,0.4,1.9,0.2,2.9,0.3c3.3,0.1,6.7,0,10,0
			c0,1.3,0,2.7,0,4s0,2.7,0,4c0,3.3,0,6.7,0,10c0,2,0,4,0,6c0,0.7,0,1.3,0,2c0,2,0,4,0,6c-5.1,0-10.3,0-15.4,0
			c-1.3,0-1.7,0.4-1.6,1.7c0.1,4.3,0.1,8.6,0,12.9c0,1,0.3,1.5,1.4,1.4c4.6,0,9.3-0.1,13.9,0c1.7,0,1.9-0.7,1.8-2.1
			c-0.1-0.7,0-1.3,0-2c0-1.3,0-2.7,0-4s0-2.7,0-4c0-0.7,0-1.3,0-2s0-1.3,0-2c5.3,0,10.7,0,16,0c0,8,0,16,0,24
			c-2.1,0.7-0.9,2.5-0.9,3.6c-0.1,1.8-0.4,2.6-2.4,2.4c-1.1-0.1-0.6,1.2-0.7,1.9c-10.1,0-20.1,0-30.2,0c-0.6,0-1.4-0.2-1.7,0.5
			c-0.1,0.2,0.5,0.7,0.9,1c1,0.6,1,1.5,1,2.6c-0.1,2,0,4,0,5.9c-0.5,0-1.4-0.1-1.4,0c-0.4,2.1-1.9,2.2-3.6,2c-1.3-0.1-2.6,0-4,0
			c-0.6,0-0.9,0.3-1,0.8c-0.1,0.7,0.1,1.2,1,1.2c2.6,0,5.3,0,7.9,0c-0.1,0.9,0.4,2.2-1.2,2c-2.8-0.4-5.8,1.2-8.4-0.9
			c-0.3-0.2-0.9-0.2-1.3,0.3c-0.8,1.1-2.1,0.5-3.1,0.6c-1-0.1-1,0.6-1,1.3c0,3.1,0,6.3,0,9.4c0,0.8,0.1,1.7,0,2.5
			c-0.3,1.8-1.6,2.8-3.5,2.8c-8.1,0-16.2,0-24.3,0c-0.8,0-2.1-0.7-2.3,1c-0.7,0-1,0.3-1,1c-1.4-0.2-2.3,0.1-2,1.8
			c0.4,2.3,1.3,4.6,1,7c-0.1,0.7,0.1,1.3,0,2c-0.3,2.2-1.4,3.2-3.6,3.2c-3.3,0-6.6,0-9.9,0c-1.7,0-3.2,1.1-3.4,2.9
			c-0.1,0.9-0.6,2.3,0.3,2.8c1.4,0.9-0.6,1.3,0,2.2c2.2,3.1-1.1,5.2-1.6,7.7c-0.1,0.7-1.2,0.3-1.8,0.3c-4.6,0-9.3,0-13.9,0
			c-0.3-2.1-0.4-2.2-2-1.4c-0.8,0.4-1.8,0.7-1.9-0.2c-0.3-1.8,0-3.6-0.1-5.4c0-1.3,1.3-0.7,1.7-1.2c0.3-0.3,0.3-0.9,0.3-1.3
			c0-2,0-4,0-5.9c0-0.5,0.2-1.3-0.3-1.3c-1.2,0-2.9-1.3-3.7,0.8c-0.7,0-1.3,0-2,0c-0.5,0-1,0.1-0.9,0.6c0.1,0.4,0.7,0.9,0.6,1
			c-0.4,0.7-1.2,0.2-1.8,0.3c0-0.6-0.1-1.3,0-1.9c0.3-1.7-0.4-2.4-2.1-2.1c-0.6,0.1-1.3,0-1.9,0c-0.5,0-1.4-0.1-1.4,0
			c-0.4,2.2-2,2.1-3.6,2c-1.3-0.1-2.7,0.1-4,0c-1.9-0.1-4.8,1-5.6-0.5c-1-1.8-1-4.8-0.1-6.7c0.8-1.9,0.7-3.1-0.1-4.8
			c-0.4-0.8-0.1-2-0.1-3c0.1-1-1.1-1.4-1.1-2.5c0-0.7-1.7-0.8-1.8,0c-0.1,1.4-0.8,1.5-1.8,1.5c-2.8,0-5.5,0-8.3,0
			c-0.2-2.1-0.1-4.2,1.4-5.8c0.6-0.7,0.6-1.4,0.6-2.2c0.5,0,1.4-0.1,1.4,0c0.5,2.5,2.5,2.1,4.1,1.9c1.5-0.2,4.1,1.1,4.2-0.8
			c0.1-2.1-2.5-0.8-3.9-1.1c-0.2,0-0.3,0-0.5,0c-1.1,0.1-1.4-0.3-1.4-1.4c0-4.2,0-8.3,0-12.5c0-0.7,0.4-1.9-0.6-2.1
			c-2.9-0.5-2.3-2.6-2.4-4.5c0-0.8,0-1.7,0-2.5c0-1-0.8-1.4-1.4-1.9c-0.8-0.6-1.4,0.4-2,0.8c-0.9,0.5,0,2.2-1.5,2.1
			c-0.6,0.1-0.9-0.3-1-0.8c-0.1-0.7-0.1-1.3-1-1.2c-4.5,0-9-0.1-13.4,0.1c-1.4,0.1-2.4-0.5-3.6-1.1c0-10.3,0-20.7,0-31
			c0.7,0,1.3,0,2,0c0.3,0,0.7,0,1,0c4,0,8,0,12,0c0.1,0.7-0.5,1.8,0.8,2c0.7,0.1,0.9-0.3,1.3-1c1.1-2.3,2.4-4.5,2-7.2
			c-0.2-1,0-2-1.5-1.8c-0.4,0-0.5-0.7-0.5-1.2c0-4.6,0-9.3,0-13.9c0-0.5,0.4-0.9,1-0.8c3-0.1,3-0.1,3-2.6C99,372.3,99,371.1,99,370z
			"/>
		<path fill="#FAB5AF" d="M237,286c-0.7,0-1.3,0-2,0c-3.7,0-7.3,0-11,0c-4.3,0-8.7,0-13,0c-2.2,0-3.1,0.8-3,2.8
			c0.1,1.9-0.8,3.9,0.8,5.7c0.5,0.6,0.6,2.4-0.2,3.2c-1.3,1.4-0.3,2.9-0.7,4.2c-4.8,0-9.6,0-14.4,0c-1.3,0-1.7-0.4-1.7-1.7
			c0.1-4.8,0-9.6,0-14.4c0.1-1.1-0.4-2.3,0.7-3.2c0.7-0.6,0.6-2,0.3-2.2c-1.6-1.4-0.8-3.1-0.9-4.6c-0.1-2,0-4,0-5.9
			c16.3,0,32.7,0,49,0c0,1.3,0,2.7,0,4c0,2.3,0,4.7,0,7c0,1.7,0,3.3,0,5C239.7,286,238.3,286,237,286z"/>
		<path fill="#FBF7EE" d="M176,361c-0.2,2.3,0.4,4.6-0.3,6.8c-2.1,0.1-4.3,0.1-6.4,0.1c-2.2,0-4.3,0.1-6.5,0
			c-2.5-0.2-2.7-0.2-2.7,1.8c-0.1,3.7,0,7.3,0,11c0,2.5-0.7,3.2-3.1,3.3c-9.5,0-19,0-28.5,0c-1,0-1.4-0.3-1.4-1.4
			c0-4.2,0-8.3,0-12.5c0-2.4,0.7-3.1,3.2-3.1c8,0,16,0,24,0c1.5,0,3.4,0.5,4.3-0.3c1.2-1,0.4-3.1,0.4-4.7c0.1-2.7,0-5.3,0-8
			c0-1,0-2,0-3c0.6,0.1,1.7-0.4,1.8,0.4c0.5,3,2.6,5.9,0.4,9.1c-0.9,1.3,0,3,0.8,4.5c1.1,1.9,2.8,0.9,4.2,1c1.3,0.1,0.7-1.2,0.8-1.9
			c0.3-1.3-0.8-3.5,0.7-3.9c1.3-0.3,1.6,2.1,2.4,3.2c0.5,0.8,0.3,2.5,1.7,2.5c1.7,0,1.7-1.9,2-2.7C174.3,361.9,173.9,360.5,176,361z
			"/>
		<path fill="#F4A88A" d="M111,264c0-21.3,0-42.7,0-64c0-2.7,0-5.3,0-8c0-4,0-4,4.2-4c3.3,0,6.7-0.1,10,0c1.7,0.1,1.9-0.7,1.8-2
			c-0.1-0.7,0-1.3,0-2c0-5.3,0-10.7,0-16c0-3.1,0-6.2,0-9.3c0-2.6,0-2.6,3-2.7c0,1,0.4,2.2-0.1,3c-1.5,2.5-0.3,5.2-1.1,7.6
			c-0.9,2.6-0.8,5.1-0.9,7.6c0,1.8-0.2,3.7,0,5.5c0.2,1.7-1.3,3.9,1.7,4.8c0.6,0.2,0.6,2.8,0,3.1c-1.9,0.8-2.2,2.9-3.7,4
			c-0.9,0.6-1,0.2-1-0.6c0-0.6-0.3-0.9-0.9-0.9c-3,0-6-0.1-9,0c-1.3,0-2.3,0.9-2.1,2.2c0.4,3.8-1,7.4-1,11.1
			c-0.1,19.1,0,38.3-0.1,57.4c0,2.3,1.6,4.2,1.1,6.6c-0.1,0.4,0.5,0.8,1,0.7c0.8-0.1,1.7-0.1,2.5,0c1,0.1,1.6-0.3,1.4-1.4
			c-0.2-0.9,0.9-2.6-1.1-2.6c-1.6,0-1.9-0.5-1.9-2c0.1-8.8,0-17.6,0-26.5c0-11.2,0-22.3,0-33.5c0-0.6,0-1.7,0.3-1.8
			c0.9-0.3,1.9-0.3,2.9-0.3c1,0,0.8,0.8,0.8,1.4c0,1.2,0,2.3,0,3.5c0,18.6,0,37.3,0,55.9c0,1-0.8,2.9,0.6,3c1.8,0.2,1.4,1.7,1.9,2.4
			c0.7,1.2,1.2,1.9,2.8,1.8c5-0.2,10,0,15-0.1c1.1,0,2.8,0.8,2.8-1.5c0-0.4,0.7-0.4,0.6-0.2c-0.7,2.1,1.9,1.4,2.4,3
			c1.2,3.9,0.7,7.7,0.9,11.6c-1.8,1.7,0.2,3.4,0,5.2c-3-0.1-3-0.1-3-3c0-0.3,0-0.6,0-1c0-0.7,0-1.3,0-2c0-2.2,0-4.3,0-6.5
			c0-3.5,0-3.5-3.3-3.5c-8.2,0-16.3,0-24.5,0c-4.3,0-4.3,0-4.3-4.5C111,265,111,264.5,111,264z"/>
		<path fill="#F9F9F6" d="M143,282c0,0.3,0,0.6,0,1c0,2.9,0,2.9,3,3c1,0,2,0,3,0c2,0,4,0,6,0c12.3,0,24.7,0,37,0c0,4.8,0,9.6,0,14.4
			c0,1.3,0.4,1.7,1.7,1.7c4.8-0.1,9.6,0,14.4,0c4.4,0,8.9,0,13.3,0c3.1,0,3,0,2.7-3.1c-0.1-0.8,0-1.6,0-2.5c0-3.5,0-6.9,0-10.4
			c3.7,0,7.3,0,11,0c-0.1,0.7,0.5,1.9-0.8,2c-1.8,0.1-3.7,0.1-5.5,0c-1.2,0-2,0.2-1.7,1.6c0.4,2.3-0.4,4.7,0.9,7.2
			c1.1,2.1-1.2,4.5-1.1,6.9c0,0.5-0.8,0.4-1.3,0.3c-1.4-0.1-2.5-0.1-2.8,1.7c-0.1,0.6-1.5,0.5-1.5-0.1c-0.2-1.2-0.6-1.6-1.8-1.6
			c-3.2,0.1-6.3,0-9.5,0c-1,0-1.7,0-2,1.4c-0.2,1.1-2.6,1-2.7,0c-0.3-2.1-1.5-1.3-2.5-1.4c-1.3-0.2-1.5,0.5-1.9,1.5
			c-0.3,0.9-2.4,0.7-2.5,0.1c-0.4-2.3-2-1.6-3.3-1.7c-0.3,0-0.7,0-1,0c-2.8,0-3.4-0.6-4-3.4c-0.1-0.3,0.1-0.7,0-1
			c-0.4-1.8-0.3-4.3-1.5-5.3c-1-0.9-3.4-0.4-5.3-0.4c-9.2,0-18.3,0-27.5,0c-1.9,0-2-0.1-1.1-2.2c0.4-0.9,0.6-1.6-0.6-1.8
			c-1.7-0.3-3.9,0.9-4.7-1.9c-0.1-0.3-1.9-0.1-2.9-0.1c-0.6,0-1.4-0.2-1.5,0.7c-0.2,1.2,0.6,1.5,1.5,1.3c1.6-0.4,1.2,1.2,1.7,1.7
			c1.2,1.1,0.5,2.5,0.7,3.7c0,0.1-0.1,0.3-0.3,0.4c-1.4,0.4-2.9,0.4-4.3,0.1c-0.8-0.2-0.2-1.5-1-2c-0.6-0.4-0.5-1.1,0-1.7
			c1.1-1.2,1.1-2.1-0.8-2.1c-0.9,0-1.6,0-1.6-1.2c0.1-2-0.1-4,0-6C141.1,281.5,142.3,282.1,143,282z M173.2,288c-4.7,0-9.3,0-14,0
			c-0.6,0-1.3,0-1.9,0.2c-0.2,0-0.3,0.5-0.3,0.8s0.1,0.7,0.3,0.8c0.2,0.2,0.6,0.2,0.9,0.2c9.8,0,19.6,0,29.4,0c0.2,0,0.3,0,0.5,0
			c0.5-0.1,0.8-0.4,0.8-1c0-0.6-0.3-1-0.8-1C183.2,288,178.2,288,173.2,288z"/>
		<path fill="#F9F9F6" d="M130,156c-3,0.1-3,0.1-3,2.7c0,3.1,0,6.2,0,9.3c-0.9-0.1-2,0.4-2-1.3c0.1-4.5,0-9,0-13.5
			c0-0.5,0.1-1.1,0.6-1.2c0.6-0.1,1.2-0.1,1.4,0.8c0.4,1.7,1.3,1.7,1.9,0.2c0.3-0.8,0.6-1,1.3-1c1.5,0,3,0,4.5,0
			c0.3,0,0.8,0,0.9,0.2c0.5,0.9,0.5,2,2.2,1.9c1.6-0.1,0.8-1.6,1.6-2c0.4-0.2,1.2-0.3,1.3,0.2c0.2,1.8,1.4,1.8,2.8,1.7
			c2.7-0.1,5.3,0,8,0c1.7,0,3.7,0.6,4.9-0.2c1.4-0.8,0.5-3,0.6-4.6c0-1.2,2.1-1.9,0.5-3.4c-1.1-1,0.4-3-0.8-3.6
			c-1.2-0.6-2.9-0.3-4.4-0.3c-16.5,0-33,0-49.5-0.1c-0.9,0-2.4,1-2.8-1c1.6,0.5,2.5-1.3,4.1-1c1.5,0.2,3,0,4.5,0
			c15.8,0,31.6,0,47.4,0c0.1,0.3,0.2,0.8,0.3,0.8c0.6,0.1,0.7-0.3,0.7-0.8c0.7,0,1.3,0,2,0c-0.7,2.2,1,4,1,6c0,2.3,0,4.6,0,7
			c0,0.7,0,1.3,0,2c0,0.3,0,0.7,0,1c-1,0-2,0-3,0C148,156,139,156,130,156z"/>
		<path fill="#F9F9F6" d="M111,264c0,0.5,0,1,0,1.5c0,4.5,0,4.5,4.3,4.5c8.2,0,16.3,0,24.5,0c3.3,0,3.3,0,3.3,3.5c0,2.2,0,4.3,0,6.5
			c-0.5,0-1.4,0.1-1.4,0c-0.4-2.2-2-2-3.6-2c-3.5,0.1-7,0.1-10.5,0c-1.5,0-2.5,0.1-2.7,1.8c0,0.1-0.9,0.2-1.3,0.1
			c-0.6-0.2-0.4-0.9-0.4-1.3c0-0.3,0.5-0.4,0.6-0.7c0.8-2.5,0-3.7-2.6-3.8c-3.5-0.1-7,0-10.5,0c-0.9,0-1.6,0-1.6-1.2
			c0-2.7-0.1-5.3,0.1-8C109.1,263.5,110.3,264.2,111,264z"/>
		<path fill="#FBF7EE" d="M241,368c-3.3,0-6.7,0-10,0c-0.9,0-1.9,0.2-2.9-0.3c-2-0.8-3.1-0.1-3.1,1.7c-0.1,3,0,6,0,9
			c0,0.7,0,1.3,0,2c-0.1,3.1-0.5,3.5-3.8,3.6c-3.5,0-7,0-10.5,0c-2.9,0-2.7,0-2.8,3.1c0,1.4,1.3,2.2,1.1,3.6c-0.2,1.3,0,2.7,0,4
			c0,0.5,0,1,0,1.5c-0.2,2.9-1.2,3.8-4,3.9c-4,0-8,0-12,0c0.1-0.7-0.5-1.8,0.8-2c1.5-0.1,3,0.1,4.5-0.1c1.8-0.2,4.3,1.2,5.1-1.8
			c0-0.1,0.3-0.1,0.4-0.1c1-0.1,2.3,0.2,2.8-0.3c0.9-1,0.3-2.5,0.3-3.8c0-1.6,0.2-3.1-0.8-4.7c-0.4-0.7-2.2-2.1-0.9-2.8
			c1.5-0.8,1.9-3.1,4.4-2.6c1.9,0.4,4,0.2,6,0.1c1.4-0.1,3.4,0.9,3.7-1.7c0-0.1,0.6-0.3,0.8-0.3c2.4,0.5,3.5-0.5,2.9-2.9
			c-0.3-1.2,1.2-2.1,0.6-2.9c-0.8-1-0.6-1.8-0.6-2.8c0-2.3-0.3-4.5,1.9-6.2c1.2-0.9,3.5-1.9,3.7-0.9c0.7,2.7,2.5,1.3,3.9,1.6
			c0.5,0.1,1,0,1.5,0c1.3-0.2,3,0.7,3.2-1.7c0.1-0.7,1.2-0.2,1.8-0.3c0,1,0.8,1.3,1.4,1.8C241.1,366.5,241,367.2,241,368z"/>
		<path fill="#FBF7EE" d="M192,383c0-4.2,0-8.3,0-12.5c0-2.9,0.6-3.5,3.3-3.5c3.5,0,7-0.1,10.5,0c1.7,0.1,2.3-0.2,2.3-2.1
			c-0.1-10-0.1-19.9-0.1-29.9c0.7,0.2,1.8-0.5,2,0.8c0.1,0.5,0,1,0,1.5c0,9-0.1,18,0.1,27c0.1,3.3-2.5,5-3.5,7.6
			c0,0.1-1.2,0-1.2-0.1c-0.1-2.4-1.9-1.7-3.2-1.8c-2.2,0-4.3,0.1-6.5,0c-1.4-0.1-1.6,0.5-1.6,1.7c0.1,3.3,0,6.7,0,10
			C194.1,383.4,192.9,382.9,192,383z"/>
		<path fill="#FBF7EE" d="M192,412c0,0.7-0.1,1.3,0,2c0.2,1.4-0.1,2.1-1.8,2c-4.1-0.1-8.3-0.1-12.5,0c-1.7,0.1-1.8-0.7-1.8-2.1
			c0-9.1,0-18.3,0.1-27.4c0-0.9-0.7-2.2,0.7-2.5c1.2-0.3,2.2-1.9,3.5-1c2.6,1.6,5.1,1.2,7.7,0c1.5-0.7,2.5,1.4,4.1,1
			c0.5,1.4-0.9,2.3-1.2,3.5c-0.1,0.8-1.4,0.8-1.8-0.2c-0.2-0.6,0-1.3-1-1.3c-3,0-6,0-9,0c-0.9,0-1.1,0.5-1.1,1.2c0,8.5,0,17,0,25.4
			c0,1.1,0.4,1.4,1.5,1.4c2.7-0.1,5.3,0,8,0c0.6,0,1.5,0.2,1.5-0.7C189.2,410.8,191,412.4,192,412z"/>
		<path fill="#F9F9F6" d="M127,184c0,0.7-0.1,1.3,0,2c0.2,1.4-0.1,2.1-1.8,2c-3.3-0.1-6.6,0-10,0c-4.2,0-4.2,0-4.2,4
			c0,2.7,0,5.3,0,8c-0.7-0.1-1.9,0.5-2-0.8c-0.1-4.8-0.1-9.6,0-14.5c0-0.9,0.9-0.9,1.5-0.7c0.4,0.2,0.7,0.7,1.1,1
			c1.2,1.3,2.4,1.3,3.8,0.1c1.3-1.2,2.6-2.8,3.9,0.4c0.4,1,3.2,0.9,3.4,0.1C123.4,182.7,125.6,184.5,127,184z"/>
		<path fill="#FBF7EE" d="M138,351c-0.5-1.7,0.9-3,1-4.5c0.1-0.8-0.7-2.3,0.8-2.4c2.1-0.2,1.1,1.6,1.1,2.5c0.1,1,0.3,1.5,1.4,1.4
			c4.5,0,8.9,0,13.4,0c1.1,0,1.3-0.5,1.3-1.5c0-0.5,0.7-0.6,1.2-0.5c0.5,0.1,0.8,0.4,0.8,1c0,1.3,0,2.6,0,4C152,351,145,351,138,351
			z"/>
		<path fill="#F9F9F6" d="M241,274c0-1.3,0-2.7,0-4c5.3,0,10.7,0,16,0c-0.1,0.7,0.5,1.8-0.8,2c-1.1,0.1-2.3,0-3.5,0
			c-2.9,0-4.4,2.1-3.3,4.9c0.5,1.2,0.9,2.1,0,3c-0.2,0.3-0.9,0.1-1.4,0.1c-2-0.2-0.9-1.8-1-2.7c-0.3-2.8-0.7-3.2-3.6-3.3
			C242.7,274,241.8,274,241,274z"/>
		<path fill="#FBF7EE" d="M127,351c0-0.3,0-0.7,0-1c0.7-0.1,1.9,0.5,2-0.8c0.1-3,1.7-5.9,1.1-9c-0.1-0.7-0.3-1.6,0.5-2.3
			c0.5-0.4,0.8-1,1.6-0.9c0.9,0.1,0.8,0.8,0.8,1.5c0,0.5,0,1,0,1.5c0,2,0.1,4,0,6c-0.1,1.8,1.5,3.2,1,5.1
			C131.7,351,129.3,351,127,351z"/>
		<path fill="#FAB5AF" d="M127,351c2.3,0,4.7,0,7,0c1.3,0,2.7,0,4,0c7,0,14,0,21,0c0,1,0,2,0,3c-0.5,0-1.4,0.1-1.4,0
			c-0.4-2.2-2-2-3.6-2c-12.3,0-24.6,0-36.9,0c-0.7,0-1.3,0-2,0c-1,0-2,0-3,0c0-0.3,0-0.7,0-1C117,351,122,351,127,351z"/>
		<path fill="#FBF7EE" d="M208,335c-5,0-10,0-15,0c0.1-3,0.1-3,2.2-3c1.6,0,3.6-0.8,4.2,1.8c0,0.2,2.1,0.2,2.1,0
			c0.6-2.6,2.6-1.7,4.2-1.8C207.9,332,207.9,332,208,335z"/>
		<path fill="#F9F9F6" d="M253,396c-0.1,0.8,0.5,2-1.2,2c-1.6,0-3.2,0-4.8,0c0-1.2-0.1-2.3,0-3.5c0.1-0.9-0.7-2.3,0.7-2.5
			c1.4-0.2,3.3-0.8,4.1,0.5C252.4,393.4,253.5,394.6,253,396z"/>
		<path fill="#FBF7EE" d="M192,348c-0.1,3-0.1,3-2.6,3c-1.5,0-2.9,0-4.4,0c0.2-1.2-0.9-3,1.6-3.2c0.8-0.1,0.3-1.4,0.4-2.2
			c0.1-0.8-0.1-1.7,1.1-1.6c0.9,0,0.9,0.7,0.9,1.4c0,0.2,0,0.3,0,0.5C189.2,347.9,189.2,347.9,192,348z"/>
		<path fill="#F9F9F6" d="M96,141c0.7,0,1,0.3,1,1c0,4.2,0,8.5,0,12.7c0,0.4-0.3,0.8-0.5,1.3c-0.7-0.4-0.3-1.2-0.7-1.6
			c-0.2-0.2-0.5-0.2-0.8-0.4c0.5-3.4-0.9-7,0.8-10.4c0.4-0.8-0.9-0.4-1.2-0.7c-0.8-0.8-1.1-1.6,0.5-2C95.3,141,95.7,141,96,141z"/>
		<path fill="#F9F9F6" d="M212,310c-2,0-4,0-6,0c-0.9,0-1.1-0.6-1-1.3c0.1-0.5,0.4-0.8,1-0.8c2.8,0,5.7-0.2,8.4,0.1
			c1.5,0.1,3.6-1.3,4.5,1.2c-1.3,1.6-3,0.5-4.5,0.7C213.7,310.1,212.8,310,212,310z"/>
		<path fill="#F9F9F6" d="M239,364c-0.6,0.1-1.7-0.4-1.8,0.3c-0.3,2.4-2,1.5-3.2,1.7c0.1-0.6-0.4-1.7,0.3-1.8
			c1.9-0.2,1.8-1.5,1.6-2.7c-0.2-1.5,0.7-1.5,1.8-1.5c1.2,0,1.3,0.6,1.2,1.6C239,362.4,239,363.2,239,364z"/>
		<path fill="#F9F9F6" d="M273,320c-4.3-0.1-4.2-0.1-4-4.2c0-1.1,0.5-1.8,1-2.5c0.2-0.4,0.3-0.8,0.5-1.3c0.5,0.3,0.5,0.7,0.5,1.2
			c0,1.1,0,2.3,0,3.4c0,1.3,0.8,2,2,2.3C273,319.3,273,319.7,273,320z"/>
		<path fill="#F9F9F6" d="M263.5,360c0.8,0.3,2.1-0.8,2.5,0.7c0.3,1.2-1.5,3.3-2.5,3.3c-1.6-0.1-2.5-1.1-2.5-2.8
			C261,360,261,360,263.5,360z"/>
		<path fill="#FBF7EE" d="M176,352c0,2,0,4,0,6c-2.4,0.6-2.3-1.7-2.9-2.8c-0.4-0.7-0.3-2.1,0.2-2.8C173.8,351.5,175.1,352.2,176,352
			z"/>
		<path fill="#FBF7EE" d="M181,351c-1.3,0-2.7,0-4,0c0.1-3.1,0.1-2.9,2.2-3C182.1,347.8,180.7,349.8,181,351z"/>
		<path fill="#F9F9F6" d="M241,286c0-1.7,0-3.3,0-5c0.6,0.1,1.6-0.4,1.8,0.4c0.2,1.4,0.2,2.9,0,4.3C242.6,286.4,241.6,285.9,241,286
			z"/>
		<path fill="#FBF7EE" d="M192,336c0,1.3,0,2.7,0,4c-2.1,0.5-2-0.8-2-2.2C189.9,336.1,190.7,335.8,192,336z"/>
		<path fill="#F9F9F6" d="M237,286c1.3,0,2.7,0,4,0c0.5,2.1-0.8,2-2.2,2C237.1,288.1,236.8,287.3,237,286z"/>
		<path fill="#F9F9F6" d="M255,366.5c-0.1,0.5,0.3,1.3-0.6,1.3c-0.3,0-0.7-0.6-1-1c-0.7-1-0.3-2.2-0.3-3.3c0-0.4,0.4-0.5,0.9-0.1
			C255.1,364.2,255.1,365.3,255,366.5z"/>
		<path fill="#F9F9F6" d="M255,374c0,1,0,1.5,0,2c-0.5,0-1.1,0.2-1.4,0c-0.8-0.6-0.9-3.2-0.1-3.8c0.2-0.2,1.2,0,1.2,0.1
			C254.9,373,255,373.8,255,374z"/>
		<path fill="#FBF7EE" d="M192,401c0,1.7,0,3.3,0,5c-1.6-0.6-1.6-2.1-1.9-3.3C189.5,401.1,190.7,400.8,192,401z"/>
		<path fill="#F9F9F6" d="M114.2,280c-0.7,0-1.2,0.1-1.6,0c-0.5-0.2-0.7-0.7-0.5-1.2c0.1-0.3,0.3-0.7,0.5-0.7c0.5-0.1,1-0.1,1.5,0
			c0.9,0.1,2.2-0.5,2,1.2C115.8,280.5,114.7,279.8,114.2,280z"/>
		<path fill="#FBF7EE" d="M194.1,394c-1,0.1-1.2-0.6-1-1.2c0.2-1.2,1.3-0.7,2-0.7c0.9-0.1,1.1,0.6,1,1.2
			C195.8,394.5,194.7,393.8,194.1,394z"/>
		<path fill="#FBF7EE" d="M241,392c0-2,0-4,0-6C242.4,387.9,242.4,390.1,241,392z"/>
		<path fill="#F9F9F6" d="M242,374c1,0.4,3.1-1.1,2.9,1.2c-0.1,1.6-1.9,0.5-2.9,0.8C242,375.3,242,374.7,242,374z"/>
		<path fill="#FBF7EE" d="M205,392.8c0,0.7-0.1,1.2-1,1.2c-0.6,0-0.9-0.3-1-0.8c-0.1-0.7,0.1-1.2,1-1.3
			C204.6,392,204.9,392.3,205,392.8z"/>
		<path fill="#2D0976" d="M111,328c-1.4-1.3-1.4-2.7,0-4C111,325.3,111,326.7,111,328z"/>
		<path fill="#FBF7EE" d="M242,374c0,0.7,0,1.3,0,2c-0.3,0-0.7,0-1,0c0-1.3,0-2.7,0-4C242.5,372.1,241.8,373.2,242,374z"/>
		<path fill="#F9F9F6" d="M276,318c0,0.3,0,0.7,0,1c-0.7,0-1.3,0-2,0c-0.3,0-0.7,0-1,0C273.5,317.1,275,318.4,276,318z"/>
		<path fill="#989898" d="M273,319c0.3,0,0.7,0,1,0c-0.2,0.8,0.5,1.9-1,2c0-0.3,0-0.7,0-1S273,319.3,273,319z"/>
		<path fill="#2D0976" d="M111,321c-1.5-0.1-0.8-1.2-1-2C111.5,319.1,110.8,320.2,111,321z"/>
		<path fill="#FBF7EE" d="M193,335c0,0.7-0.3,1-1,1C192,335.3,192.3,335,193,335z"/>
		<path fill="#F9F9F6" d="M270.5,300c0.1,0.2,0.3,0.4,0.3,0.7c0,0.1-0.2,0.2-0.3,0.3c-0.1-0.2-0.3-0.4-0.3-0.7
			C270.2,300.2,270.4,300.1,270.5,300z"/>
		<path fill="#F9F9F6" d="M98.6,152.1c0.1,0.1,0.2,0.2,0.4,0.4c-0.2,0.1-0.4,0.3-0.7,0.3c-0.1,0-0.2-0.2-0.3-0.3
			C98.2,152.4,98.4,152.3,98.6,152.1z"/>
		<path fill="#989898" d="M260.1,365.6c0.1-0.2,0.2-0.4,0.4-0.6c0.1,0.1,0.3,0.2,0.3,0.3c-0.1,0.2-0.2,0.4-0.3,0.7
			C260.4,365.9,260.3,365.8,260.1,365.6z"/>
		<path fill="#0E1B2A" d="M78,238c-0.3,0-0.7,0-1,0c0-0.5,0.1-0.9,0.7-0.8C77.8,237.2,77.9,237.7,78,238z"/>
		<path fill="#F9F9F6" d="M98,142c0-0.7,0.3-1,1-1C99,141.7,98.7,142,98,142z"/>
		<path fill="#FBF7EE" d="M177,351c0,0.7-0.3,1-1,1C176,351.3,176.3,351,177,351z"/>
		<path fill="#FBF7EE" d="M192,344c0,0.3,0,0.7,0,1c-0.5,0-0.9-0.1-0.8-0.7C191.2,344.2,191.7,344.1,192,344z"/>
		<path fill="#F4A88A" d="M160,155c0-0.7,0-1.3,0-2c0-2.3,0-4.6,0-7c0-2.1-1.7-3.9-1-6c2,0,4,0,6,0c0.7,0,1.3,0,2,0c1.3,0,2.7,0,4,0
			c0.7,0,1.3,0,2,0c0.5,0,1-0.1,1.4,0c1.8,0.3,1.6-0.9,1.6-2c0.3,0,0.7,0,1,0c0.3-0.1,0.8-0.2,0.8-0.3c0.1-0.6-0.3-0.7-0.8-0.7
			c-0.3,0-0.7,0-1,0c0-0.3,0-0.7,0-1c0.3,0,0.7,0,1,0c1.1,0.1,2.3-0.4,3.2,0.7c0.6,0.7,1.2,1.2-0.4,1.3c-1,0.1-0.7,0.9-0.9,1.4
			c-0.8,1.7-1.8,2.9-4.2,2.7c-4.1-0.3-8.3-0.1-12.4-0.1c-1.1,0-1.7,0.7-1.2,1.5c1.4,2.2,1.4,4,0,6.2c-0.8,1.3,0.7,2.3,1,3.5
			c0.4,1.5,1.6,0.8,2.4,0.8c12.6,0,25.2,0,37.8,0c1.3,0,2.7-0.1,4,0c1.3,0.1,0.6,1.3,0.8,2c-0.7,0-1.3,0-2,0
			c-0.1-0.3-0.2-0.8-0.3-0.8c-0.6-0.1-0.7,0.3-0.7,0.8c-10,0-20,0-30,0c-0.1-0.3-0.2-0.8-0.3-0.8c-0.6-0.1-0.7,0.3-0.7,0.8
			c-2,0-4,0-6,0c0.1-0.9-0.5-1-1.2-1C163.9,155,161.9,155,160,155z"/>
		<path fill="#F4A88A" d="M241,123c0,1.7,0,3.3,0,5c-0.5,0-1.4,0.1-1.4,0c-0.4-2.2-2-2-3.6-2c-18.3,0-36.6,0-54.9,0
			c-2.3,0-2.3,0-4.1,2c0-1.3,0-2.7,0-4c0.8-0.2,1.9,0.5,2-1c0.7,0,1.3,0,2,0c0,1.4,1.1,1,1.8,1c6.2,0,12.3,0,18.5,0
			c11.8,0,23.6,0,35.4,0c0.8,0,2.1,0.7,2.3-1C239.7,123,240.3,123,241,123z"/>
		<path fill="#989898" d="M239,123c-0.2,1.7-1.5,1-2.3,1c-11.8,0-23.6,0-35.4,0c-6.2,0-12.3,0-18.5,0c-0.7,0-1.8,0.4-1.8-1
			C200.3,123,219.7,123,239,123z"/>
		<path fill="#FAB5AF" d="M177,124c0,1.3,0,2.7,0,4c0,2.7,0,5.3,0,8c-0.3,0-0.7,0-1,0c0-4,0-8,0-12C176.3,124,176.7,124,177,124z"/>
		<path fill="#989898" d="M177,124c-0.3,0-0.7,0-1,0c0.5-1.9,2-0.6,3-1C178.9,124.5,177.8,123.8,177,124z"/>
		<path fill="#FBA47D" d="M176,137c0.3,0,0.7,0,1,0c0.5,0,0.9,0.1,0.8,0.7c0,0.2-0.5,0.3-0.8,0.3c-0.3,0.1-0.7,0-1,0
			C176,137.7,176,137.3,176,137z"/>
		<path fill="#949C93" d="M167,140c-0.7,0-1.3,0-2,0c-0.1-0.9,0.6-1.1,1.2-1C166.7,139.1,167.1,139.4,167,140z"/>
		<path fill="#949C93" d="M159,140c-0.7,0-1.3,0-2,0c-0.1-0.9,0.6-1.1,1.2-1C158.7,139.1,159.1,139.4,159,140z"/>
		<path fill="#949C93" d="M173,140c-0.7,0-1.3,0-2,0c-0.1-0.9,0.6-1.1,1.2-1C172.7,139.1,173.1,139.4,173,140z"/>
		<path fill="#FDFDFD" d="M157,140c0,0.5-0.1,0.9-0.7,0.8c-0.2,0-0.2-0.5-0.3-0.8C156.3,140,156.7,140,157,140z"/>
		<path fill="#FDFDFD" d="M96,141c-0.3,0-0.7,0-1,0c0-0.5,0.1-0.9,0.7-0.8C95.8,140.2,95.9,140.7,96,141z"/>
		<path fill="#FBA47D" d="M177,136c0-2.7,0-5.3,0-8c1.7-2,1.7-2,4.1-2c18.3,0,36.6,0,54.9,0c1.7,0,3.2-0.2,3.6,2c0,0.1,0.9,0,1.4,0
			c0,1.3,0,2.7,0,4c-1.3-0.2-2.1,0.1-2,1.8c0.1,1.5,0,2.8,2,2.2c0,5.3,0,10.7,0,16c-1,0.4-2.9-1.2-3,1.3c0,0.5-0.5,0.9-1,0.7
			c-2.1-0.6-4,1-6.2,0.1c-1.4-0.6-3.3-0.2-4.9-0.1c-1.3,0.1-0.6,1.3-0.8,2c0,0.7,0,1.3,0,2c-0.7,0.1-1.7-0.5-2,0.7
			c-0.1,0.7,0,1.3,1,1.3c0,2,0,4,0,6c-1.7-0.3-0.3,2.3-2,2c-0.9-0.2-1.1,0.6-1,1.3c0.1,0.9,0.9,0.7,1.5,0.7c0.5,0,1,0,1.5,0
			c0.1,0.9-0.4,2,1.2,2c3.4-0.1,6.9,0,10.3,0c1.8,0,3.6,0,5.4,0c0,10.2,0,20.5,0,30.7c0,0.8-0.7,2.1,1,2.3c-0.1,0.6,0.3,1,0.8,1
			c4.8,0,9.6,0,14.4,0c0.5,0,0.9-0.4,0.8-1c-0.1-0.8,0.8-1,1-1.6c0.5-1.9-0.8-3.4-0.9-5.1c-0.1-1.6,2.2-3,0.1-4.8
			c-0.4-0.4-0.1-1.6-0.2-2.4c0-0.8,0.3-1.2,1.1-1.2c0.2,0,0.3,0,0.5,0c3.7,0,7.3,0.1,11,0.1c0.9,3.6,0.4,7.2,0.4,10.8
			c0.1,16.2,0,32.3,0,48.5c0,2.5,0,2.6-2.7,2.6c-3.3,0-6.7,0.1-10,0c-1.7,0-1.2,1.1-1.3,2c0,5.3,0,10.7,0,16c-5.3,0-10.7,0-16,0
			c0-10.3,0-20.6,0-30.9c0-1.2,0.1-2.2-1.7-2.1c-9.5,0.1-18.9,0-28.4,0.1c-2.1,0-2.9,0.8-2.9,2.9c-0.1,3.7-0.2,7.3,0,11
			c0.1,2-0.6,2.2-2.3,2.1c-3.5-0.1-7-0.1-10.5,0c-2.7,0-3.3,0.6-3.3,3.5c0,4.5,0,9,0,13.5c0,2-0.1,4,0,5.9c0.1,1.5-0.7,3.2,0.9,4.6
			c0.3,0.3,0.5,1.6-0.3,2.2c-1.1,0.9-0.5,2.1-0.7,3.2c-12.3,0-24.7,0-37,0c0-0.5,0.2-1.3,0-1.4c-2-0.9-4-0.9-5.9,0
			c-0.2,0.1,0,0.9,0,1.4c-1,0-2,0-3,0c0.2-1.7-1.8-3.4,0-5.2c-0.2-3.9,0.3-7.7-0.9-11.6c-0.5-1.6-3.1-0.8-2.4-3
			c0.1-0.2-0.6-0.2-0.6,0.2c0.1,2.4-1.7,1.5-2.8,1.5c-5,0.1-10-0.1-15,0.1c-1.6,0.1-2-0.6-2.8-1.8c-0.4-0.7,0-2.2-1.9-2.4
			c-1.4-0.1-0.6-2-0.6-3c0-18.6,0-37.3,0-55.9c0-1.2,0-2.3,0-3.5c0-0.7,0.1-1.4-0.8-1.4c-1,0-2,0-2.9,0.3c-0.3,0.1-0.3,1.2-0.3,1.8
			c0,11.2,0,22.3,0,33.5c0,8.8,0,17.6,0,26.5c0,1.4,0.3,2,1.9,2c2.1-0.1,0.9,1.7,1.1,2.6c0.2,1.1-0.4,1.5-1.4,1.4
			c-0.8-0.1-1.7-0.1-2.5,0c-0.6,0-1.1-0.3-1-0.7c0.5-2.3-1.1-4.3-1.1-6.6c0.1-19.1,0-38.3,0.1-57.4c0-3.7,1.4-7.3,1-11.1
			c-0.1-1.3,0.8-2.1,2.1-2.2c3-0.1,6,0,9,0c0.5,0,0.9,0.3,0.9,0.9c0,0.8,0.1,1.2,1,0.6c1.5-1.1,1.8-3.2,3.7-4c0.6-0.3,0.6-2.9,0-3.1
			c-3-0.9-1.5-3.1-1.7-4.8c-0.2-1.8-0.1-3.7,0-5.5c0.1-2.6,0-5.1,0.9-7.6c0.8-2.3-0.5-5.1,1.1-7.6c0.4-0.7,0.1-2,0.1-3
			c9,0,18,0,27,0c2,2.2,2,2.2,2,4c0.1,4-0.5,8.1,1,12c0,5.1,0,10.3,0,15.4c0,1.3,0.4,1.7,1.7,1.6c4.1-0.1,8.3,0,12.4-0.1
			c1.4,0,2,0.3,2,1.9c-0.1,4.1-0.1,8.3,0,12.4c0,0.7-0.4,1.8,1,1.8c0.2,1.7,1.5,1,2.3,1c8.1,0.1,16.3,0,24.4,0c1,0,2.5-0.6,2.3,1.5
			c0,0.1,0.4,0.2,0.7,0.3c0.5-2.1,3.3-2.7,3.3-5c0-4,0.1-8,0-12c0-1.3-1.3-0.6-2-0.8c-0.1-0.9,0.4-2-1.2-2c-4.6,0-9.2,0-13.8,0
			c0-2.1-1.7-3.8-1-6c0-3.3,0-6.7,0-10c3.6,0,7.3,0,10.9,0c1.6,0,3.6,0.3,4.7-0.4c0.7-0.5,0.3-2.7,0.3-4.2c0-0.5,0.3-0.9,0.4-1.3
			c1.2-3.5,0.7-6.5-1.4-10c-0.1-0.7,0.5-1.8-0.8-2c-1.3-0.1-2.6,0-4,0c-12.6,0-25.2,0-37.8,0c-0.8,0-2.1,0.7-2.4-0.8
			c-0.3-1.2-1.8-2.3-1-3.5c1.4-2.2,1.4-4,0-6.2c-0.5-0.8,0.1-1.5,1.2-1.5c4.1,0,8.3-0.2,12.4,0.1c2.4,0.2,3.4-1,4.2-2.7
			c0.3-0.5-0.1-1.3,0.9-1.4c1.5-0.1,1-0.6,0.4-1.3C179.3,135.6,178.1,136.1,177,136z M150.7,282c3.4,0,3.4,0,3.3-2.5
			c-0.1-1.3-1.9-2.3-2.5-1.3c-0.7,1-1.2,2-2.4,2.4c-0.1,0-0.3,1,0.3,1.2C149.9,282,150.6,282,150.7,282z"/>
		<path fill="#F4A88A" d="M225,156c0.1-0.7-0.5-1.9,0.8-2c1.7-0.1,3.5-0.5,4.9,0.1c2.2,0.9,4.1-0.7,6.2-0.1c0.6,0.2,1-0.2,1-0.7
			c0.2-2.5,2-0.8,3-1.3c0,0.2,0,0.3,0,0.5c-0.1,3.5-0.1,3.5-3.2,3.5C233.5,156,229.3,156,225,156z"/>
		<path fill="#F4A88A" d="M224,170c-0.5,0-1,0-1.5,0c-0.6,0-1.4,0.1-1.5-0.7c-0.1-0.7,0-1.4,1-1.3c1.7,0.3,0.3-2.4,2-2
			C225.4,167.3,225.4,168.7,224,170z"/>
		<path fill="#F4A88A" d="M241,136c-2.1,0.5-2-0.8-2-2.2c-0.1-1.7,0.7-1.9,2-1.8C241,133.3,241,134.7,241,136z"/>
		<path fill="#F4A88A" d="M224,160c-1,0.1-1.1-0.6-1-1.3c0.2-1.2,1.3-0.6,2-0.7C224.8,158.8,225.5,159.9,224,160z"/>
		<path fill="#FAB5AF" d="M258,205c0.1,0.6-0.3,1-0.8,1c-4.8,0-9.6,0-14.4,0c-0.5,0-0.9-0.4-0.8-1c5,0,10,0,15,0
			C257.3,205,257.7,205,258,205z"/>
		<path fill="#B66054" d="M338,284c0-1.3,0-2.7,0-4C339.4,281.3,339.4,282.7,338,284z"/>
		<path fill="#0F1B2B" d="M353,200c0.3,1.6-0.4,2.3-2,2c0-0.7,0-1.3,0-2C351.7,200,352.3,200,353,200z"/>
		<path fill="#FBA47D" d="M135,480c0.8-2.1,2.4-0.7,3.7-0.8c0.5,0,0.3,0.8,0.3,1.3c0,2,0,4,0,5.9c0,0.5-0.1,1-0.3,1.3
			c-0.4,0.5-1.7-0.1-1.7,1.2c0,1.8-0.2,3.7,0.1,5.4c0.1,0.9,1.1,0.6,1.9,0.2c1.6-0.8,1.7-0.7,2,1.4c-2.7,0-5.3,0-8,0
			c2-2.6,2-2.6,2-6.1C135,486.6,135,483.3,135,480z"/>
		<path fill="#F4A88A" d="M135,480c0,3.3,0,6.6,0,9.9c0,3.5,0,3.5-2,6.1c-0.7,0-1.3,0-2,0c0-4.7,0-9.3,0-14c0.6-0.1,1.4,0.3,1.8-0.3
			c0.1-0.2-0.5-0.6-0.6-1c-0.1-0.6,0.4-0.7,0.9-0.6C133.7,480,134.3,480,135,480z"/>
		<path fill="#FBA47D" d="M222,446c-2.6,0-5.3,0-7.9,0c-0.9,0-1.1-0.5-1-1.2c0.1-0.5,0.3-0.8,1-0.8c1.3,0.1,2.7-0.1,4,0
			c1.7,0.1,3.2,0.1,3.6-2c0-0.1,0.9,0,1.4,0c0,0.9,0,1.9,0,2.8C223,445.5,222.9,446.1,222,446z"/>
		<path fill="#494847" d="M209,449c-0.2,0.8,0.5,1.9-1,2c0-0.7,0-1.3,0-2C208.3,449,208.7,449,209,449z"/>
		<path fill="#494847" d="M208,453c0.5,0,0.9,0.1,0.8,0.7c0,0.2-0.5,0.2-0.8,0.3C208,453.7,208,453.3,208,453z"/>
		<path fill="#FAB5AF" d="M95,432c0.9-0.1,0.9,0.6,1,1.2c0.1,0.5,0.4,0.9,1,0.8c0.5,4.4-1.4,8.6-1.1,13.1c0.4,5.6,0.1,11.3,0.1,16.9
			c-0.3,0-0.7,0-1,0s-0.7,0-1,0c0-0.7,0-1.3,0-2c1.4,0,1-1,1-1.8c0-6.7,0-13.5,0-20.2c0-0.7,0-1.3,0-2c0-0.3,0-0.7,0-1c0-1,0-2,0-3
			C95,433.3,95,432.7,95,432z"/>
		<path fill="#B66054" d="M95,440c0,6.7,0,13.5,0,20.2c0,0.7,0.4,1.8-1,1.8c0-6.7,0-13.5,0-20.2C94,441,93.6,440,95,440z"/>
		<path fill="#B66054" d="M94,464c0.3,0,0.7,0,1,0c0,0.3,0,0.7,0,1C94.3,465,94,464.7,94,464z"/>
		<path fill="#B66054" d="M95,437c0,0.3,0,0.7,0,1c-0.5,0-0.9-0.1-0.8-0.7C94.2,437.2,94.7,437.1,95,437z"/>
		<path fill="#F4A88A" d="M95,465c0-0.3,0-0.7,0-1c0.3,0,0.7,0,1,0c1,0,2,0,3,0c2.8,0,5.5,0,8.3,0c1.1,0,1.7,0,1.8-1.5
			c0.1-0.8,1.8-0.8,1.8,0c0,1.1,1.2,1.5,1.1,2.5c-0.3,0-0.7,0-1,0C105.7,465,100.3,465,95,465z"/>
		<path fill="#2D0976" d="M81,400c-0.3,0-0.7,0-1,0c0-0.5,0.1-0.9,0.7-0.8C80.8,399.2,80.9,399.7,81,400z"/>
		<path fill="#FBA47D" d="M112,352c1,0,2,0,3,0c0,3,0,6,0,9c0,2.6,0,5.2,0,7.8c0,0.7-0.1,1.2-1,1.2c-0.9,0-0.9-0.6-1-1.3
			c-0.1-0.5-0.4-0.9-1-0.8C112,362.7,112,357.3,112,352z"/>
		<path fill="#FBA47D" d="M99,370c0,1.1,0,2.3,0,3.4c0,2.5,0,2.5-3,2.6c0-2,0-4,0-6C97,370,98,370,99,370z"/>
		<path fill="#FBA57E" d="M99,370c-1,0-2,0-3,0c-0.2-1.3,0.1-2.1,1.7-2C99.4,368,98.9,369.1,99,370z"/>
		<path fill="#B66054" d="M413,188c-2.1,1.4-4.9,1.4-7,0C408.3,188,410.7,188,413,188z"/>
		<path fill="#B66054" d="M404,189c-0.4,1,0.9,2.5-1,3C403.4,191,402.1,189.5,404,189z"/>
		<path fill="#B66054" d="M417,188c0,0.5-0.1,0.9-0.7,0.8c-0.2,0-0.2-0.5-0.3-0.8C416.3,188,416.7,188,417,188z"/>
		<path fill="#FBA47D" d="M99,464c-1,0-2,0-3,0c0-5.7,0.3-11.3-0.1-16.9c-0.3-4.5,1.6-8.6,1.1-13.1c1.6,0.1,0.7-1.6,1.5-2.1
			c0.7-0.4,1.2-1.4,2-0.8c0.6,0.4,1.5,0.9,1.4,1.9c0,0.8,0,1.7,0,2.5c0,1.9-0.5,4,2.4,4.5c1.1,0.2,0.6,1.4,0.6,2.1
			c0,4.2,0,8.3,0,12.5c0,1.1,0.3,1.5,1.4,1.4c0.2,0,0.3,0,0.5,0c1.4,0.4,4-0.9,3.9,1.1c-0.1,1.9-2.7,0.6-4.2,0.8
			c-1.6,0.2-3.6,0.6-4.1-1.9c0-0.1-0.9,0-1.4-4c0-6.4,0-8.9,0-11.4c0-0.5-0.5-0.8-1.1-0.7c-0.3,0.1-0.8,0.3-0.8,0.4
			c0,5.1,0,10.2,0.1,15.2c0,0.1,0.6,0.4,0.8,0.3c0.3-0.1,1,0.5,1-0.5c0-2.5,0-4.9,0-3.5c0,4.8,0,5.4-0.6,6.2
			C98.9,459.8,98.8,461.9,99,464z"/>
		<path fill="#FBFBFB" d="M241,408c0,1.3,0,2.7,0,4c-0.9,0.2-2.5-0.5-2.7,0.4c-0.4,1.4-1,1.7-2.3,1.6c-3.3-0.2-6.6,0.4-9.8-0.4
			c0-3.1,0-6.3-0.2-9.4c-0.1-1.6,0.1-2.4,2.1-2.3c4.3,0.2,8.6,0.1,12.9,0.1c0,0.7,0,1.3,0,2C239.6,405.3,239.6,406.7,241,408z"/>
		<path fill="#FBF7EE" d="M241,402c-4.3,0-8.6,0.1-12.9-0.1c-2-0.1-2.2,0.7-2.1,2.3c0.1,3.1,0.1,6.3,0.2,9.4
			c3.2,0.8,6.5,0.1,9.8,0.4c1.3,0.1,1.9-0.2,2.3-1.6c0.3-0.9,1.8-0.2,2.7-0.4c0,0.7-0.1,1.3,0,2c0.1,1.3-0.1,2.1-1.8,2.1
			c-4.6-0.1-9.3-0.1-13.9,0c-1.1,0-1.4-0.4-1.4-1.4c0-4.3,0.1-8.6,0-12.9c0-1.3,0.3-1.7,1.6-1.7c5.1,0.1,10.3,0,15.4,0
			C241,400.7,241,401.3,241,402z"/>
		<path fill="#F4A88A" d="M115,361c0-3,0-6,0-9c0.7,0,1.3,0,2,0c0,0.3-0.1,0.8,0,1c3.1,4.3,1.7,9.3,2,14c0,0.6-0.3,0.9-0.8,1
			c-0.7,0.1-1.5-0.2-1.2-1c0.5-1.3-1.4-2.2-0.2-3.7C117.5,362.4,116.2,361.3,115,361z"/>
		<path fill="#FBF7EE" d="M241,408c-1.4-1.3-1.4-2.7,0-4C241,405.3,241,406.7,241,408z"/>
		<path fill="#F9F9F6" d="M192,270c0-4.5,0-9,0-13.5c0-2.9,0.6-3.5,3.3-3.5c3.5,0,7-0.1,10.5,0c1.6,0.1,2.4-0.1,2.3-2.1
			c-0.2-3.6-0.1-7.3,0-11c0-2.2,0.8-2.9,2.9-2.9c9.5,0,18.9,0,28.4-0.1c1.8,0,1.7,0.9,1.7,2.1c0,10.3,0,20.6,0,30.9
			C224.7,270,208.3,270,192,270z"/>
		<path fill="#FBA57E" d="M224,286c0,3.5,0,6.9,0,10.4c0,0.8-0.1,1.7,0,2.5c0.4,3.1,0.4,3.1-2.7,3.1c-4.4,0-8.9,0-13.3,0
			c0.3-1.4-0.6-2.9,0.7-4.2c0.8-0.9,0.7-2.6,0.2-3.2c-1.6-1.8-0.7-3.8-0.8-5.7c-0.1-2,0.8-2.8,3-2.8C215.3,286,219.7,286,224,286z"
			/>
		<path fill="#FDFDFD" d="M173.2,288c5,0,10,0,15,0c0.5,0,0.8,0.3,0.8,1c0,0.6-0.3,0.9-0.8,1c-0.2,0-0.3,0-0.5,0
			c-9.8,0-19.6,0-29.4,0c-0.3,0-0.7,0-0.9-0.2c-0.2-0.2-0.3-0.5-0.3-0.8s0.2-0.8,0.3-0.8c0.6-0.1,1.3-0.2,1.9-0.2
			C163.9,288,168.6,288,173.2,288z"/>
		<path fill="#F4A88A" d="M149,286c0-0.5-0.2-1.3,0-1.4c2-0.9,4-0.9,5.9,0c0.2,0.1,0,0.9,0,1.4C153,286,151,286,149,286z"/>
		<path fill="#FCC4AB" d="M160,155c1.9,0,3.9,0,5.8,0c0.7,0,1.3,0.1,1.2,1c-2.3,0-4.7,0-7,0C160,155.7,160,155.3,160,155z"/>
		<path fill="#FCC4AB" d="M159,160c0-1.8,0-1.8-2-4c1,0,2,0,3,0c0,0.9,0,1.9,0,2.8C160,159.5,159.9,160.1,159,160z"/>
		<path fill="#F9F9F6" d="M159,160c0.9,0.1,1-0.5,1-1.2c0-0.9,0-1.9,0-2.8c2.3,0,4.7,0,7,0c2,0,4,0,6,0c0.3,0,0.7,0,1,0
			c10,0,20,0,30,0c0.3,0,0.7,0,1,0c0.7,0,1.3,0,2,0c2.1,3.6,2.6,6.6,1.4,10c-0.1,0.4-0.4,0.8-0.4,1.3c-0.1,1.5,0.4,3.7-0.3,4.2
			c-1.2,0.8-3.1,0.4-4.7,0.4c-3.6,0-7.3,0-10.9,0c-10.7,0-21.3,0-32,0C158.5,168.1,159.1,164,159,160z"/>
		<path fill="#FCC4AB" d="M205,156c-0.3,0-0.7,0-1,0c0-0.5,0.1-0.9,0.7-0.8C204.8,155.2,204.9,155.7,205,156z"/>
		<path fill="#FCC4AB" d="M174,156c-0.3,0-0.7,0-1,0c0-0.5,0.1-0.9,0.7-0.8C173.8,155.2,173.9,155.7,174,156z"/>
		<path fill="#353434" d="M160,172c10.7,0,21.3,0,32,0c0,3.3,0,6.7,0,10c-1.8,0.4-3.6,2.7-2.8,3.6c1,1.1,1.8,2.9,3.8,2.4
			c0.1,0.9-0.4,2,1.2,2c4.6,0,9.2,0,13.8,0c0,4.3-0.1,8.6,0.1,12.9c0.1,1.9-0.6,2.1-2.2,2.1c-9.6-0.1-19.2,0-28.8,0
			c-1.4,0-1-1.1-1-1.8c0-4.1-0.1-8.3,0-12.4c0-1.6-0.6-1.9-2-1.9c-4.1,0.1-8.3,0-12.4,0.1c-1.3,0-1.7-0.3-1.7-1.6
			C160,182.3,160,177.1,160,172z"/>
		<path fill="#F4A88A" d="M177,205c9.6,0,19.2,0,28.8,0c1.7,0,2.3-0.2,2.2-2.1c-0.2-4.3-0.1-8.6-0.1-12.9c0.7,0.1,1.9-0.5,2,0.8
			c0.1,4,0.1,8,0,12c0,2.4-2.8,3-3.3,5c-0.2-0.1-0.7-0.2-0.7-0.3c0.2-2.1-1.3-1.5-2.3-1.5c-8.1,0-16.3,0-24.4,0
			C178.5,206,177.2,206.7,177,205z"/>
		<path fill="#494847" d="M208,190c-4.6,0-9.2,0-13.8,0c-1.7,0-1.2-1.1-1.2-2c4.6,0,9.2,0,13.8,0C208.4,188,207.9,189.1,208,190z"/>
		<path fill="#F4A88A" d="M150.7,282c-0.1,0-0.8,0-1.4-0.2c-0.6-0.2-0.4-1.2-0.3-1.2c1.2-0.4,1.8-1.3,2.4-2.4c0.6-1,2.5,0.1,2.5,1.3
			C154.1,282,154.1,282,150.7,282z"/>
		<path fill="#494847" d="M193,188c-2,0.4-2.8-1.3-3.8-2.4c-0.8-0.9,1-3.2,2.8-3.6C191.3,184.2,193,185.9,193,188z"/>
		<path fill="#F4A88A" d="M101,448.1c0,2.5,0,4.9,0,7.4c0,1-0.7,0.4-1,0.5c-0.2,0.1-0.8-0.2-0.8-0.3c-0.1-5.1-0.1-10.2-0.1-15.2
			c0-0.1,0.5-0.3,0.8-0.4c0.5-0.1,1.1,0.2,1.1,0.7C101,443.1,101,445.6,101,448.1z"/>
	</g>
</g>
</svg>
